<svg id="visual" viewBox="0 0 900 600" width="900" height="600" xmlns="http://www.w3.org/2000/svg" xmlns:xlink="http://www.w3.org/1999/xlink" version="1.1"><rect x="0" y="0" width="900" height="600" fill="#001220"></rect><defs><linearGradient id="grad1_0" x1="33.3%" y1="0%" x2="100%" y2="100%"><stop offset="20%" stop-color="#001220" stop-opacity="1"></stop><stop offset="80%" stop-color="#001220" stop-opacity="1"></stop></linearGradient></defs><defs><linearGradient id="grad2_0" x1="0%" y1="0%" x2="66.7%" y2="100%"><stop offset="20%" stop-color="#001220" stop-opacity="1"></stop><stop offset="80%" stop-color="#001220" stop-opacity="1"></stop></linearGradient></defs><g transform="translate(900, 0)"><path d="M0 362C-49.6 367.2 -99.2 372.3 -150 362.2C-200.8 352 -252.8 326.6 -286.8 286.8C-320.9 247 -337.1 192.9 -344.6 142.7C-352.2 92.5 -351.1 46.3 -350 0L0 0Z" fill="#FBAE3C"></path></g><g transform="translate(0, 600)"><path d="M0 -337C39.3 -319.8 78.7 -302.5 120.9 -291.9C163.2 -281.4 208.3 -277.5 257.4 -257.4C306.5 -237.2 359.5 -200.8 374.7 -155.2C390 -109.6 367.5 -54.8 345 0L0 0Z" fill="#FBAE3C"></path></g></svg>