<svg id="visual" viewBox="0 0 900 600" width="900" height="600" xmlns="http://www.w3.org/2000/svg" xmlns:xlink="http://www.w3.org/1999/xlink" version="1.1"><path d="M0 97L82 109L164 67L245 73L327 103L409 49L491 109L573 109L655 91L736 109L818 91L900 73L900 0L818 0L736 0L655 0L573 0L491 0L409 0L327 0L245 0L164 0L82 0L0 0Z" fill="#fcaf3c"></path><path d="M0 271L82 319L164 241L245 325L327 265L409 313L491 247L573 289L655 235L736 331L818 253L900 175L900 71L818 89L736 107L655 89L573 107L491 107L409 47L327 101L245 71L164 65L82 107L0 95Z" fill="#fba230"></path><path d="M0 421L82 373L164 295L245 379L327 391L409 385L491 385L573 397L655 361L736 385L818 325L900 307L900 173L818 251L736 329L655 233L573 287L491 245L409 311L327 263L245 323L164 239L82 317L0 269Z" fill="#fa9424"></path><path d="M0 481L82 433L164 397L245 481L327 487L409 487L491 433L573 493L655 397L736 469L818 367L900 409L900 305L818 323L736 383L655 359L573 395L491 383L409 383L327 389L245 377L164 293L82 371L0 419Z" fill="#f98619"></path><path d="M0 601L82 601L164 601L245 601L327 601L409 601L491 601L573 601L655 601L736 601L818 601L900 601L900 407L818 365L736 467L655 395L573 491L491 431L409 485L327 485L245 479L164 395L82 431L0 479Z" fill="#f7770f"></path></svg>