<svg id="visual" viewBox="0 0 900 600" width="900" height="600" xmlns="http://www.w3.org/2000/svg" xmlns:xlink="http://www.w3.org/1999/xlink" version="1.1"><path d="M0 115L82 133L164 109L245 133L327 109L409 139L491 133L573 115L655 103L736 145L818 133L900 139L900 0L818 0L736 0L655 0L573 0L491 0L409 0L327 0L245 0L164 0L82 0L0 0Z" fill="#fcaf3c"></path><path d="M0 265L82 265L164 277L245 247L327 253L409 259L491 259L573 241L655 259L736 259L818 265L900 253L900 137L818 131L736 143L655 101L573 113L491 131L409 137L327 107L245 131L164 107L82 131L0 113Z" fill="#f6894c"></path><path d="M0 307L82 313L164 325L245 289L327 295L409 301L491 295L573 283L655 295L736 307L818 313L900 295L900 251L818 263L736 257L655 257L573 239L491 257L409 257L327 251L245 245L164 275L82 263L0 263Z" fill="#e2695c"></path><path d="M0 385L82 385L164 391L245 379L327 379L409 397L491 361L573 367L655 385L736 367L818 379L900 367L900 293L818 311L736 305L655 293L573 281L491 293L409 299L327 293L245 287L164 323L82 311L0 305Z" fill="#c25167"></path><path d="M0 445L82 445L164 445L245 433L327 427L409 451L491 421L573 415L655 433L736 421L818 421L900 427L900 365L818 377L736 365L655 383L573 365L491 359L409 395L327 377L245 377L164 389L82 383L0 383Z" fill="#99426b"></path><path d="M0 481L82 481L164 481L245 469L327 457L409 481L491 457L573 457L655 469L736 469L818 457L900 457L900 425L818 419L736 419L655 431L573 413L491 419L409 449L327 425L245 431L164 443L82 443L0 443Z" fill="#6c3865"></path><path d="M0 511L82 517L164 511L245 505L327 493L409 517L491 487L573 487L655 505L736 499L818 493L900 493L900 455L818 455L736 467L655 467L573 455L491 455L409 479L327 455L245 467L164 479L82 479L0 479Z" fill="#412e55"></path><path d="M0 571L82 565L164 565L245 559L327 559L409 571L491 559L573 559L655 571L736 571L818 565L900 565L900 491L818 491L736 497L655 503L573 485L491 485L409 515L327 491L245 503L164 509L82 515L0 509Z" fill="#1c213e"></path><path d="M0 601L82 601L164 601L245 601L327 601L409 601L491 601L573 601L655 601L736 601L818 601L900 601L900 563L818 563L736 569L655 569L573 557L491 557L409 569L327 557L245 557L164 563L82 563L0 569Z" fill="#001122"></path></svg>