<svg id="svg" version="1.1" xmlns="http://www.w3.org/2000/svg" xmlns:xlink="http://www.w3.org/1999/xlink" width="400" height="317.6470588235294" viewBox="0, 0, 400,317.6470588235294"><g id="svgg"><path id="path0" d="M223.828 16.078 C 218.124 16.512,212.750 17.741,205.947 20.170 C 204.320 20.750,199.116 23.338,197.961 24.141 C 197.510 24.454,196.283 25.256,195.234 25.922 C 188.855 29.977,180.362 38.759,177.595 44.162 C 177.371 44.599,177.100 45.028,176.991 45.115 C 176.883 45.203,176.619 45.631,176.406 46.068 C 176.192 46.505,175.875 47.077,175.701 47.339 C 175.075 48.282,172.200 54.863,172.200 55.354 C 172.200 55.524,172.002 56.113,171.759 56.664 C 171.088 58.187,170.281 61.607,169.349 66.878 C 168.270 72.982,168.786 83.190,170.464 88.959 C 170.693 89.746,170.981 90.961,171.105 91.660 C 171.229 92.359,171.439 93.074,171.573 93.249 C 171.707 93.423,171.965 94.067,172.148 94.678 C 176.523 109.364,191.061 124.509,206.195 130.147 C 207.331 130.570,208.546 131.047,208.896 131.208 C 209.738 131.596,213.644 132.621,216.998 133.335 C 225.451 135.134,242.010 133.639,248.347 130.505 C 251.926 128.735,257.606 125.667,258.872 124.821 C 259.624 124.319,260.308 123.908,260.394 123.908 C 260.595 123.908,262.484 122.580,262.903 122.144 C 263.080 121.961,263.940 121.247,264.813 120.559 C 269.166 117.131,274.600 111.181,276.886 107.340 C 277.061 107.046,277.696 105.971,278.297 104.952 C 278.899 103.932,279.506 103.050,279.648 102.992 C 279.789 102.934,279.908 102.648,279.912 102.356 C 279.916 102.065,280.416 100.904,281.024 99.776 C 281.632 98.649,282.129 97.527,282.129 97.284 C 282.129 97.041,282.322 96.462,282.558 95.998 C 283.193 94.750,284.058 92.154,284.322 90.707 C 284.449 90.008,284.723 89.124,284.930 88.742 C 285.136 88.360,285.308 87.503,285.310 86.836 C 285.313 86.169,285.545 84.694,285.827 83.558 C 286.502 80.831,286.593 70.298,285.965 67.514 C 285.729 66.465,285.430 64.750,285.300 63.701 C 285.171 62.653,284.918 61.366,284.738 60.842 C 284.557 60.318,284.089 58.817,283.698 57.506 C 282.956 55.022,282.643 54.191,281.528 51.752 C 281.159 50.947,280.858 50.125,280.858 49.925 C 280.858 49.726,280.721 49.563,280.555 49.563 C 280.388 49.563,280.157 49.063,280.043 48.451 C 279.928 47.840,279.703 47.339,279.544 47.339 C 279.384 47.339,279.107 47.017,278.927 46.624 C 278.748 46.231,278.254 45.338,277.830 44.639 C 277.405 43.940,276.958 43.153,276.836 42.891 C 275.431 39.866,266.191 30.301,262.105 27.641 C 261.702 27.379,261.110 26.914,260.790 26.608 C 260.469 26.303,260.118 26.052,260.010 26.052 C 259.902 26.052,259.008 25.569,258.024 24.978 C 249.296 19.738,244.105 17.749,236.060 16.563 C 233.415 16.173,226.291 15.891,223.828 16.078 M231.938 42.588 C 256.052 45.564,268.717 73.031,255.285 93.220 C 241.338 114.182,209.515 112.262,198.593 89.800 C 187.101 66.167,206.015 39.389,231.938 42.588 M222.738 56.569 C 210.815 60.083,205.495 72.208,210.721 83.956 C 211.090 84.786,211.500 85.465,211.632 85.465 C 211.764 85.465,211.959 85.740,212.065 86.076 C 212.297 86.807,214.796 89.446,216.387 90.640 C 222.942 95.560,233.181 95.531,239.555 90.574 C 241.042 89.419,243.666 86.737,243.678 86.361 C 243.682 86.242,243.864 85.954,244.083 85.721 C 244.537 85.235,245.234 83.847,246.285 81.334 C 247.232 79.070,247.357 71.463,246.479 69.579 C 246.193 68.967,245.861 68.126,245.741 67.710 C 245.130 65.596,243.047 62.879,239.613 59.714 C 236.188 56.558,227.970 55.026,222.738 56.569 M116.124 69.243 C 90.700 74.767,81.268 105.312,99.109 124.339 C 109.695 135.627,128.735 137.445,141.589 128.395 C 148.100 123.811,152.727 117.018,154.755 109.069 C 156.119 103.724,155.577 94.408,153.649 90.071 C 146.501 73.986,131.814 65.834,116.124 69.243 M126.132 82.110 C 144.849 85.705,148.393 111.505,131.225 119.182 C 127.727 120.747,127.067 120.875,122.637 120.852 C 112.841 120.800,105.654 114.957,103.457 105.259 C 100.493 92.176,112.851 79.559,126.132 82.110 M120.762 95.526 C 119.391 95.817,117.024 98.584,116.786 100.172 C 115.843 106.458,122.923 110.140,127.216 105.596 C 131.547 101.012,127.158 94.166,120.762 95.526 M166.363 115.091 C 166.115 115.485,165.817 116.164,165.702 116.600 C 165.425 117.647,164.655 119.564,163.732 121.508 C 162.770 123.535,162.790 126.464,163.755 124.902 C 163.849 124.750,164.358 124.539,164.886 124.433 C 165.414 124.328,165.846 124.086,165.846 123.897 C 165.846 123.701,165.675 123.660,165.449 123.801 C 163.944 124.741,163.655 123.266,164.835 120.660 C 165.332 119.563,166.012 117.963,166.348 117.103 C 166.683 116.244,167.101 115.500,167.276 115.449 C 167.863 115.278,170.929 119.843,170.929 120.888 C 170.929 121.151,171.144 121.366,171.406 121.366 C 172.317 121.366,170.713 117.749,169.598 117.289 C 169.456 117.231,169.341 117.044,169.341 116.875 C 169.341 116.377,167.629 114.377,167.204 114.376 C 166.989 114.376,166.611 114.698,166.363 115.091 M84.194 148.034 C 80.307 149.322,73.709 154.035,73.709 155.525 C 73.709 155.592,73.305 156.262,72.812 157.013 C 72.318 157.765,71.575 159.166,71.160 160.127 L 70.406 161.875 70.108 223.987 C 69.775 293.667,69.653 289.275,72.055 294.519 C 73.663 298.031,78.931 303.000,81.970 303.873 C 82.407 303.999,83.193 304.292,83.717 304.524 C 86.117 305.589,89.820 305.629,186.180 305.631 C 288.179 305.633,289.978 305.609,293.814 304.165 C 300.215 301.755,305.122 296.110,306.372 289.718 C 306.989 286.566,306.935 164.691,306.316 162.351 C 305.077 157.669,302.021 153.392,298.014 150.731 C 296.435 149.683,295.818 149.368,293.249 148.302 L 291.501 147.577 188.721 147.516 C 90.047 147.458,85.871 147.478,84.194 148.034 M285.385 147.936 C 287.431 148.083,288.165 148.251,288.165 148.572 C 288.165 148.899,288.717 149.007,290.390 149.007 C 292.008 149.007,292.939 149.180,293.801 149.643 C 294.453 149.992,295.150 150.278,295.350 150.278 C 295.549 150.278,295.890 150.492,296.108 150.755 C 296.326 151.017,296.737 151.231,297.023 151.231 C 297.308 151.231,298.001 151.732,298.563 152.343 C 299.124 152.955,299.731 153.455,299.911 153.455 C 300.091 153.455,300.238 153.670,300.238 153.932 C 300.238 154.194,300.453 154.408,300.715 154.408 C 300.977 154.408,301.191 154.551,301.191 154.726 C 301.191 154.901,301.442 155.308,301.747 155.631 C 302.894 156.844,303.415 157.607,303.415 158.076 C 303.415 158.341,303.630 158.641,303.892 158.741 C 304.154 158.842,304.369 159.198,304.369 159.534 C 304.369 159.869,304.654 160.957,305.004 161.951 C 305.859 164.384,306.023 289.382,305.173 290.596 C 304.917 290.962,304.614 291.843,304.500 292.553 C 304.387 293.264,304.096 293.921,303.855 294.013 C 303.613 294.106,303.415 294.422,303.415 294.715 C 303.415 295.566,299.366 300.238,298.629 300.238 C 298.455 300.238,298.230 300.453,298.129 300.715 C 298.029 300.977,297.766 301.191,297.547 301.191 C 297.327 301.191,296.783 301.477,296.339 301.827 C 295.895 302.176,295.351 302.462,295.130 302.462 C 294.909 302.462,294.469 302.697,294.153 302.983 C 293.723 303.372,292.896 303.512,290.872 303.539 C 289.383 303.558,288.165 303.659,288.165 303.762 C 288.165 304.998,87.939 305.269,84.342 304.038 C 76.759 301.444,71.671 295.404,70.835 288.006 C 70.348 283.699,70.844 162.950,71.354 161.905 C 71.601 161.398,71.803 160.793,71.803 160.562 C 71.803 158.922,74.884 154.694,78.141 151.867 C 80.438 149.872,84.273 148.395,88.006 148.069 C 91.080 147.800,281.706 147.672,285.385 147.936 M293.566 159.492 C 293.566 159.845,293.778 160.127,294.043 160.127 C 294.308 160.127,294.519 159.845,294.519 159.492 C 294.519 159.139,294.308 158.856,294.043 158.856 C 293.778 158.856,293.566 159.139,293.566 159.492 M159.406 167.410 C 157.822 168.149,156.237 169.974,155.576 171.819 C 154.765 174.080,154.753 278.599,155.563 281.040 C 157.090 285.641,162.159 287.280,166.322 284.518 C 167.371 283.822,168.276 283.143,168.335 283.009 C 168.393 282.874,168.577 282.764,168.745 282.764 C 169.143 282.764,171.016 281.447,171.342 280.937 C 171.482 280.719,171.737 280.540,171.910 280.540 C 172.082 280.540,173.123 279.861,174.222 279.031 C 175.321 278.201,177.322 276.736,178.667 275.774 C 180.012 274.813,182.096 273.312,183.297 272.438 C 184.497 271.565,185.794 270.635,186.179 270.373 C 186.563 270.111,187.564 269.396,188.403 268.785 C 189.243 268.173,190.242 267.458,190.623 267.196 C 191.005 266.934,192.199 266.062,193.276 265.258 C 195.434 263.648,201.781 259.136,204.523 257.263 C 205.486 256.605,206.666 255.747,207.144 255.356 C 207.622 254.966,208.337 254.432,208.732 254.170 C 209.127 253.908,209.612 253.545,209.809 253.364 C 210.006 253.183,210.674 252.724,211.293 252.346 C 211.912 251.967,212.731 251.400,213.113 251.087 C 213.494 250.773,214.813 249.801,216.045 248.928 C 217.276 248.054,219.276 246.624,220.488 245.751 C 221.700 244.877,223.377 243.688,224.214 243.109 C 225.050 242.530,227.450 240.827,229.547 239.325 C 231.644 237.823,234.075 236.092,234.948 235.478 C 235.822 234.864,237.406 233.707,238.469 232.907 C 239.531 232.108,241.512 230.667,242.869 229.706 C 245.871 227.581,247.101 226.342,247.355 225.187 C 247.460 224.706,247.679 224.231,247.840 224.131 C 248.401 223.784,248.137 221.255,247.375 219.678 C 246.479 217.825,245.918 217.278,243.102 215.509 C 241.159 214.288,235.172 210.605,233.899 209.846 C 233.602 209.669,232.535 208.990,231.527 208.337 C 230.519 207.683,229.554 207.149,229.382 207.149 C 229.211 207.149,229.071 207.037,229.071 206.900 C 229.071 206.764,228.678 206.484,228.197 206.278 C 227.716 206.072,225.807 204.933,223.955 203.746 C 219.380 200.816,212.117 196.294,211.048 195.711 C 210.240 195.270,206.782 193.142,204.925 191.942 C 204.488 191.660,203.889 191.285,203.595 191.108 C 201.500 189.850,197.785 187.529,196.187 186.483 C 195.139 185.795,193.995 185.081,193.646 184.896 C 192.700 184.394,186.516 180.648,184.750 179.508 C 183.553 178.735,178.890 175.887,178.137 175.468 C 177.755 175.256,177.228 174.933,176.966 174.750 C 174.996 173.373,168.063 169.133,165.133 167.514 C 163.555 166.642,161.145 166.598,159.406 167.410 M32.883 167.730 C 25.196 169.620,19.399 175.646,17.942 183.261 C 17.290 186.666,17.290 200.308,17.942 203.713 C 19.520 211.961,26.211 218.378,34.415 219.513 C 37.962 220.004,55.992 219.973,56.489 219.476 C 56.893 219.072,57.077 168.659,56.678 167.619 C 56.379 166.842,36.111 166.936,32.883 167.730 M164.181 167.884 C 164.882 168.131,166.080 168.736,166.842 169.228 C 167.605 169.720,168.473 170.268,168.772 170.446 C 169.604 170.942,175.192 174.399,177.894 176.090 C 179.218 176.918,180.516 177.705,180.778 177.837 C 181.177 178.038,183.394 179.408,187.596 182.049 C 188.013 182.311,189.902 183.450,191.794 184.579 C 193.686 185.708,195.306 186.723,195.393 186.834 C 195.481 186.946,196.696 187.710,198.094 188.533 C 199.492 189.356,201.851 190.800,203.336 191.742 C 204.821 192.684,206.347 193.641,206.726 193.868 C 207.744 194.478,210.884 196.411,212.041 197.141 C 212.846 197.648,217.211 200.297,220.429 202.230 C 220.726 202.409,221.612 202.978,222.399 203.495 C 223.185 204.012,224.071 204.581,224.367 204.759 C 225.945 205.708,236.947 212.446,239.606 214.092 C 240.071 214.379,241.143 215.028,241.989 215.534 C 249.074 219.767,249.259 224.259,242.547 229.093 C 241.229 230.042,239.172 231.557,237.976 232.460 C 236.779 233.364,234.657 234.885,233.261 235.841 C 231.865 236.798,229.784 238.275,228.637 239.124 C 227.490 239.973,225.543 241.382,224.309 242.256 C 223.075 243.129,221.083 244.559,219.882 245.433 C 218.680 246.307,217.383 247.236,216.998 247.498 C 216.614 247.760,215.613 248.475,214.774 249.087 C 213.934 249.698,212.950 250.407,212.586 250.662 C 209.647 252.721,194.773 263.342,193.010 264.640 C 191.787 265.541,189.748 267.021,188.479 267.928 C 187.210 268.836,185.209 270.268,184.031 271.111 C 178.543 275.039,174.344 278.035,173.397 278.700 C 172.826 279.100,172.245 279.607,172.105 279.825 C 171.965 280.044,171.700 280.222,171.515 280.222 C 171.331 280.222,170.659 280.630,170.022 281.128 C 163.549 286.191,160.313 286.571,157.134 282.643 L 156.156 281.434 156.062 227.214 C 155.992 187.160,156.063 172.667,156.332 171.739 C 157.246 168.589,160.981 166.755,164.181 167.884 M294.521 174.980 L 294.523 176.172 294.979 175.299 C 295.229 174.819,295.523 174.283,295.631 174.107 C 295.739 173.932,295.533 173.789,295.174 173.789 C 294.629 173.789,294.520 173.989,294.521 174.980 M377.140 179.855 C 376.361 180.007,375.267 180.349,374.709 180.614 C 374.150 180.879,373.169 181.096,372.530 181.096 C 371.225 181.096,370.847 181.209,361.080 184.504 C 357.236 185.801,353.590 187.001,352.979 187.171 C 352.367 187.341,351.581 187.603,351.231 187.754 C 350.580 188.034,349.545 188.379,344.559 189.972 C 342.986 190.475,340.699 191.239,339.476 191.669 C 338.253 192.099,336.108 192.821,334.710 193.274 C 331.603 194.280,330.279 194.726,328.832 195.253 C 328.221 195.476,326.247 196.125,324.446 196.695 C 322.645 197.265,320.930 197.909,320.634 198.125 C 319.751 198.771,319.810 247.341,320.695 247.988 C 321.183 248.345,329.873 251.359,336.458 253.455 C 337.244 253.706,338.173 254.031,338.523 254.179 C 338.872 254.327,339.515 254.537,339.952 254.645 C 340.389 254.753,341.247 255.039,341.859 255.280 C 342.470 255.521,345.473 256.516,348.531 257.493 C 351.589 258.469,354.376 259.393,354.726 259.546 C 357.231 260.642,372.038 265.231,372.596 265.085 C 372.970 264.988,373.725 265.132,374.275 265.406 C 379.089 267.808,384.292 266.091,384.865 261.912 C 385.127 260.000,385.131 186.093,384.869 184.181 C 384.599 182.217,382.832 180.290,380.891 179.842 C 379.304 179.476,379.065 179.477,377.140 179.855 M168.599 186.074 C 168.483 186.190,168.388 201.686,168.388 220.508 L 168.388 254.731 169.054 254.906 C 169.631 255.056,169.685 254.986,169.456 254.387 C 169.116 253.496,168.934 186.777,169.271 186.440 C 169.410 186.301,170.296 186.695,171.239 187.316 C 172.182 187.937,174.250 189.234,175.834 190.198 C 181.602 193.709,183.806 195.068,184.273 195.397 C 184.535 195.583,185.065 195.908,185.450 196.120 C 186.059 196.455,188.151 197.741,191.764 200.000 C 192.323 200.349,193.598 201.136,194.597 201.747 C 195.597 202.359,196.744 203.074,197.147 203.336 C 198.003 203.894,202.566 206.705,204.108 207.625 C 205.522 208.470,207.838 209.899,212.073 212.541 C 213.995 213.741,217.284 215.756,219.380 217.019 C 226.926 221.565,228.785 222.828,228.406 223.150 C 228.126 223.387,223.422 226.805,221.922 227.860 C 216.821 231.448,198.480 244.585,197.830 245.115 C 197.436 245.437,196.435 246.154,194.024 247.842 C 193.292 248.354,191.406 249.703,189.833 250.839 C 187.303 252.667,186.172 253.326,183.393 254.591 C 182.090 255.184,183.159 255.453,184.606 254.896 C 185.384 254.597,186.092 254.276,186.180 254.182 C 186.267 254.088,187.268 253.374,188.403 252.595 C 189.539 251.816,190.516 251.065,190.575 250.927 C 190.633 250.788,190.827 250.675,191.006 250.675 C 191.184 250.675,192.014 250.139,192.848 249.484 C 193.683 248.828,194.683 248.078,195.071 247.816 C 195.458 247.554,196.758 246.624,197.959 245.751 C 200.010 244.259,202.524 242.465,206.195 239.873 C 207.062 239.261,208.782 238.046,210.020 237.172 C 211.257 236.299,213.264 234.833,214.479 233.916 C 215.695 232.998,216.765 232.248,216.857 232.248 C 216.949 232.248,217.197 232.101,217.408 231.921 C 217.619 231.741,218.578 231.028,219.539 230.337 C 220.500 229.645,221.573 228.857,221.922 228.585 C 222.272 228.314,224.019 227.060,225.806 225.801 C 229.882 222.927,229.909 222.698,226.421 220.616 C 225.576 220.111,224.555 219.484,224.152 219.222 C 223.749 218.959,222.153 217.990,220.606 217.066 C 216.700 214.736,216.541 214.638,216.362 214.435 C 216.275 214.336,215.366 213.764,214.342 213.164 C 213.319 212.564,212.152 211.859,211.749 211.597 C 211.347 211.334,209.848 210.405,208.419 209.531 C 206.991 208.658,205.441 207.694,204.976 207.390 C 204.511 207.086,203.773 206.658,203.336 206.439 C 202.899 206.220,202.399 205.931,202.224 205.796 C 201.287 205.074,199.455 203.971,199.192 203.971 C 199.025 203.971,198.888 203.842,198.888 203.685 C 198.888 203.527,198.495 203.241,198.014 203.050 C 197.534 202.858,196.283 202.136,195.234 201.444 C 194.186 200.753,193.012 200.002,192.626 199.776 C 191.894 199.347,188.152 197.025,186.199 195.789 C 185.577 195.395,184.710 194.894,184.273 194.676 C 183.266 194.172,181.698 193.138,181.153 192.617 C 180.922 192.397,180.541 192.216,180.306 192.216 C 180.071 192.216,179.831 192.107,179.772 191.975 C 179.714 191.842,178.299 190.922,176.628 189.930 C 174.957 188.939,172.816 187.618,171.870 186.995 C 170.246 185.925,169.077 185.596,168.599 186.074 M294.541 190.389 C 294.561 191.363,294.582 191.381,294.907 190.707 C 295.097 190.314,295.373 189.992,295.521 189.992 C 295.669 189.992,295.790 189.849,295.790 189.674 C 295.790 189.500,295.504 189.357,295.155 189.357 C 294.645 189.357,294.524 189.561,294.541 190.389 M294.547 205.957 C 294.572 207.201,294.595 207.237,294.842 206.413 C 294.990 205.922,295.281 205.314,295.489 205.063 C 295.798 204.691,295.744 204.607,295.194 204.607 C 294.608 204.607,294.523 204.784,294.547 205.957 M294.519 221.012 L 294.519 222.167 295.155 221.359 C 295.504 220.915,295.790 220.395,295.790 220.204 C 295.790 220.013,295.504 219.857,295.155 219.857 C 294.636 219.857,294.519 220.069,294.519 221.012 M294.541 236.458 C 294.561 237.431,294.582 237.449,294.907 236.775 C 295.097 236.382,295.373 236.060,295.521 236.060 C 295.669 236.060,295.790 235.917,295.790 235.743 C 295.790 235.568,295.504 235.425,295.155 235.425 C 294.645 235.425,294.524 235.630,294.541 236.458 M294.519 251.840 C 294.519 253.151,294.550 253.146,295.281 251.708 C 295.789 250.710,295.785 250.675,295.163 250.675 C 294.634 250.675,294.519 250.882,294.519 251.840 M294.519 267.567 C 294.519 268.120,294.563 268.513,294.616 268.441 C 295.680 266.975,295.801 266.561,295.162 266.561 C 294.652 266.561,294.519 266.769,294.519 267.567 M294.540 283.002 C 294.558 284.103,294.583 284.135,294.870 283.417 C 295.041 282.989,295.335 282.453,295.524 282.225 C 295.789 281.907,295.712 281.811,295.194 281.811 C 294.623 281.811,294.523 281.994,294.540 283.002 " stroke="none" fill="#58717f" fill-rule="evenodd"></path><path id="path1" d="M166.689 116.203 C 166.444 116.684,166.140 117.434,166.014 117.871 C 165.887 118.308,165.367 119.563,164.858 120.660 C 163.867 122.795,163.859 124.249,164.840 124.059 C 165.131 124.003,165.369 123.935,165.369 123.908 C 165.369 123.834,166.551 123.605,167.355 123.524 C 167.748 123.484,168.070 123.268,168.070 123.044 C 168.070 122.820,168.427 122.637,168.864 122.637 C 171.486 122.637,171.427 120.526,168.703 116.851 C 167.400 115.093,167.274 115.053,166.689 116.203 M169.231 186.396 C 168.822 186.804,168.992 252.927,169.405 254.068 C 169.763 255.059,169.877 255.123,171.277 255.123 C 172.309 255.123,172.824 255.270,172.950 255.600 C 173.159 256.143,173.789 256.248,173.789 255.740 C 173.789 255.555,173.646 255.492,173.471 255.600 C 173.296 255.708,173.153 255.645,173.153 255.460 C 173.153 254.951,173.783 255.056,173.992 255.600 C 174.228 256.215,178.525 256.281,179.173 255.679 C 179.515 255.361,179.556 255.361,179.377 255.679 C 179.073 256.217,179.566 256.181,180.321 255.610 C 180.660 255.353,181.273 255.139,181.683 255.133 C 182.092 255.128,182.807 254.928,183.271 254.689 C 183.735 254.451,184.758 253.952,185.544 253.580 C 186.330 253.209,188.261 251.975,189.833 250.839 C 191.406 249.703,193.292 248.354,194.024 247.842 C 196.435 246.154,197.436 245.437,197.830 245.115 C 198.480 244.585,216.821 231.448,221.922 227.860 C 223.422 226.805,228.126 223.387,228.406 223.150 C 228.785 222.828,226.926 221.565,219.380 217.019 C 217.284 215.756,213.995 213.741,212.073 212.541 C 207.838 209.899,205.522 208.470,204.108 207.625 C 202.566 206.705,198.003 203.894,197.147 203.336 C 196.744 203.074,195.597 202.359,194.597 201.747 C 193.598 201.136,192.323 200.349,191.764 200.000 C 188.151 197.741,186.059 196.455,185.450 196.120 C 185.065 195.908,184.535 195.583,184.273 195.397 C 183.734 195.017,180.168 192.828,175.695 190.132 C 174.035 189.132,172.462 188.143,172.200 187.934 C 171.134 187.086,169.425 186.201,169.231 186.396 " stroke="none" fill="#f7d49f" fill-rule="evenodd"></path><path id="path2" d="M222.637 1.808 C 222.331 1.887,222.081 2.085,222.081 2.247 C 222.081 2.409,220.592 2.542,218.771 2.542 C 215.199 2.542,214.456 2.684,214.456 3.370 C 214.456 3.712,213.873 3.813,211.904 3.813 C 209.929 3.813,209.311 3.920,209.170 4.289 C 209.042 4.623,208.521 4.766,207.432 4.766 C 206.089 4.766,205.878 4.852,205.878 5.401 C 205.878 5.952,205.666 6.037,204.289 6.037 C 203.089 6.037,202.701 6.153,202.701 6.513 C 202.701 6.873,202.312 6.990,201.112 6.990 C 199.912 6.990,199.523 7.106,199.523 7.466 C 199.523 7.787,199.202 7.943,198.541 7.943 C 197.825 7.943,197.512 8.116,197.392 8.578 C 197.273 9.030,196.958 9.214,196.299 9.214 C 195.769 9.214,195.295 9.417,195.190 9.690 C 195.086 9.962,194.612 10.167,194.088 10.167 C 193.483 10.167,193.169 10.330,193.169 10.643 C 193.169 10.964,192.848 11.120,192.186 11.120 C 191.471 11.120,191.158 11.293,191.037 11.755 C 190.946 12.105,190.673 12.391,190.432 12.391 C 190.190 12.391,189.992 12.605,189.992 12.867 C 189.992 13.200,189.657 13.344,188.880 13.344 C 188.103 13.344,187.768 13.488,187.768 13.820 C 187.768 14.083,187.540 14.297,187.262 14.297 C 186.983 14.297,186.681 14.583,186.589 14.932 C 186.472 15.383,186.156 15.568,185.507 15.568 C 184.905 15.568,184.591 15.731,184.591 16.044 C 184.591 16.309,184.309 16.521,183.956 16.521 C 183.532 16.521,183.320 16.733,183.320 17.156 C 183.320 17.651,183.108 17.792,182.367 17.792 C 181.732 17.792,181.414 17.951,181.414 18.268 C 181.414 18.533,181.131 18.745,180.778 18.745 C 180.425 18.745,180.143 18.957,180.143 19.222 C 180.143 19.484,179.929 19.698,179.666 19.698 C 179.402 19.698,179.190 19.981,179.190 20.334 C 179.190 20.687,178.978 20.969,178.713 20.969 C 178.451 20.969,178.237 21.183,178.237 21.446 C 178.237 21.710,177.954 21.922,177.601 21.922 C 177.248 21.922,176.966 22.134,176.966 22.399 C 176.966 22.661,176.751 22.875,176.489 22.875 C 176.225 22.875,176.013 23.158,176.013 23.511 C 176.013 23.934,175.801 24.146,175.377 24.146 C 175.024 24.146,174.742 24.358,174.742 24.623 C 174.742 24.885,174.527 25.099,174.265 25.099 C 174.001 25.099,173.789 25.382,173.789 25.735 C 173.789 26.088,173.577 26.370,173.312 26.370 C 173.050 26.370,172.836 26.585,172.836 26.847 C 172.836 27.109,172.624 27.323,172.365 27.323 C 172.106 27.323,171.570 28.035,171.174 28.905 C 170.777 29.776,170.274 30.490,170.056 30.494 C 169.837 30.497,169.658 30.698,169.658 30.940 C 169.658 31.182,169.373 31.454,169.023 31.546 C 168.560 31.667,168.388 31.979,168.388 32.695 C 168.388 33.357,168.232 33.678,167.911 33.678 C 167.649 33.678,167.434 33.877,167.434 34.120 C 167.434 34.364,167.233 34.640,166.988 34.734 C 166.742 34.828,166.445 35.344,166.327 35.880 C 166.209 36.416,165.910 36.855,165.662 36.855 C 165.414 36.855,165.210 37.141,165.210 37.490 C 165.210 37.843,164.999 38.125,164.734 38.125 C 164.420 38.125,164.257 38.439,164.257 39.042 C 164.257 39.690,164.072 40.006,163.622 40.124 C 163.159 40.245,162.986 40.557,162.986 41.273 C 162.986 41.935,162.831 42.256,162.510 42.256 C 162.177 42.256,162.033 42.591,162.033 43.368 C 162.033 44.144,161.890 44.480,161.557 44.480 C 161.224 44.480,161.080 44.815,161.080 45.592 C 161.080 46.492,160.959 46.704,160.445 46.704 C 159.894 46.704,159.809 46.916,159.809 48.292 C 159.809 49.493,159.693 49.881,159.333 49.881 C 158.973 49.881,158.856 50.269,158.856 51.469 C 158.856 52.670,158.740 53.058,158.380 53.058 C 158.020 53.058,157.903 53.446,157.903 54.647 C 157.903 56.023,157.818 56.235,157.268 56.235 C 156.689 56.235,156.632 56.447,156.632 58.595 C 156.632 60.270,156.494 61.094,156.156 61.432 C 155.798 61.789,155.679 62.670,155.679 64.950 C 155.679 67.779,155.635 67.990,155.044 67.990 C 154.620 67.990,154.408 67.779,154.408 67.355 C 154.408 67.002,154.196 66.720,153.932 66.720 C 153.670 66.720,153.455 66.505,153.455 66.243 C 153.455 65.981,153.241 65.766,152.979 65.766 C 152.716 65.766,152.502 65.552,152.502 65.290 C 152.502 65.025,152.220 64.813,151.867 64.813 C 151.443 64.813,151.231 64.602,151.231 64.178 C 151.231 63.828,151.032 63.542,150.789 63.542 C 150.545 63.542,150.264 63.328,150.163 63.066 C 150.056 62.787,149.580 62.589,149.017 62.589 C 148.373 62.589,148.054 62.432,148.054 62.113 C 148.054 61.851,147.835 61.636,147.567 61.636 C 147.300 61.636,147.002 61.430,146.906 61.179 C 146.809 60.928,146.313 60.630,145.803 60.518 C 145.294 60.406,144.877 60.112,144.877 59.864 C 144.877 59.560,144.514 59.412,143.765 59.412 C 142.988 59.412,142.653 59.269,142.653 58.936 C 142.653 58.618,142.335 58.459,141.700 58.459 C 141.170 58.459,140.464 58.177,140.111 57.824 C 139.727 57.439,139.052 57.188,138.403 57.188 C 137.812 57.188,137.152 56.974,136.934 56.712 C 136.672 56.396,135.961 56.235,134.830 56.235 C 133.592 56.235,133.122 56.115,133.122 55.798 C 133.122 55.085,131.578 54.964,122.464 54.964 C 113.566 54.964,112.788 55.031,112.788 55.793 C 112.788 56.125,112.276 56.235,110.723 56.235 C 109.099 56.235,108.658 56.337,108.658 56.712 C 108.658 57.072,108.269 57.188,107.069 57.188 C 105.692 57.188,105.481 57.273,105.481 57.824 C 105.481 58.338,105.269 58.459,104.369 58.459 C 103.592 58.459,103.257 58.603,103.257 58.936 C 103.257 59.269,102.921 59.412,102.145 59.412 C 101.368 59.412,101.033 59.556,101.033 59.889 C 101.033 60.210,100.712 60.365,100.050 60.365 C 99.334 60.365,99.022 60.538,98.901 61.001 C 98.783 61.451,98.467 61.636,97.818 61.636 C 97.216 61.636,96.902 61.799,96.902 62.113 C 96.902 62.378,96.620 62.589,96.267 62.589 C 95.917 62.589,95.631 62.792,95.631 63.041 C 95.631 63.289,95.203 63.586,94.678 63.701 C 94.154 63.816,93.725 64.114,93.725 64.362 C 93.725 64.610,93.439 64.813,93.090 64.813 C 92.737 64.813,92.454 65.025,92.454 65.290 C 92.454 65.552,92.240 65.766,91.978 65.766 C 91.716 65.766,91.501 65.981,91.501 66.243 C 91.501 66.505,91.296 66.720,91.046 66.720 C 90.796 66.720,90.500 67.006,90.389 67.355 C 90.278 67.705,89.983 67.990,89.732 67.990 C 89.482 67.990,89.277 68.205,89.277 68.467 C 89.277 68.729,89.063 68.944,88.801 68.944 C 88.536 68.944,88.324 69.226,88.324 69.579 C 88.324 70.003,88.112 70.214,87.689 70.214 C 87.336 70.214,87.053 70.426,87.053 70.691 C 87.053 70.953,86.839 71.168,86.577 71.168 C 86.315 71.168,86.100 71.367,86.100 71.610 C 86.100 71.854,85.886 72.135,85.624 72.236 C 85.345 72.343,85.147 72.819,85.147 73.382 C 85.147 74.133,85.007 74.345,84.512 74.345 C 84.162 74.345,83.876 74.544,83.876 74.787 C 83.876 75.031,83.662 75.312,83.400 75.413 C 83.121 75.520,82.923 75.996,82.923 76.559 C 82.923 77.203,82.765 77.522,82.446 77.522 C 82.114 77.522,81.970 77.857,81.970 78.634 C 81.970 79.534,81.849 79.746,81.334 79.746 C 80.820 79.746,80.699 79.958,80.699 80.858 C 80.699 81.634,80.555 81.970,80.222 81.970 C 79.905 81.970,79.746 82.288,79.746 82.923 C 79.746 83.526,79.583 83.876,79.303 83.876 C 78.753 83.876,78.475 84.566,78.475 85.933 C 78.475 86.575,78.289 87.057,77.998 87.168 C 77.662 87.297,77.522 87.822,77.522 88.950 C 77.522 90.159,77.406 90.548,77.045 90.548 C 76.631 90.548,76.569 91.942,76.569 101.191 C 76.569 110.440,76.631 111.835,77.045 111.835 C 77.420 111.835,77.522 112.276,77.522 113.900 C 77.522 115.524,77.624 115.965,77.998 115.965 C 78.305 115.965,78.477 116.276,78.479 116.839 C 78.486 118.199,78.825 119.142,79.306 119.142 C 79.597 119.142,79.746 119.519,79.746 120.254 C 79.746 121.031,79.890 121.366,80.222 121.366 C 80.543 121.366,80.699 121.687,80.699 122.349 C 80.699 123.065,80.872 123.377,81.334 123.498 C 81.784 123.616,81.970 123.931,81.970 124.580 C 81.970 125.183,82.133 125.496,82.446 125.496 C 82.711 125.496,82.923 125.779,82.923 126.132 C 82.923 126.485,83.135 126.767,83.400 126.767 C 83.715 126.767,83.876 127.083,83.876 127.699 C 83.876 128.352,84.066 128.691,84.512 128.832 C 84.861 128.943,85.147 129.239,85.147 129.489 C 85.147 129.740,85.361 129.944,85.624 129.944 C 85.886 129.944,86.100 130.159,86.100 130.421 C 86.100 130.683,86.315 130.898,86.577 130.898 C 86.841 130.898,87.053 131.180,87.053 131.533 C 87.053 131.957,87.265 132.168,87.689 132.168 C 88.042 132.168,88.324 132.380,88.324 132.645 C 88.324 132.907,88.539 133.122,88.801 133.122 C 89.065 133.122,89.277 133.404,89.277 133.757 C 89.277 134.361,89.065 134.392,84.988 134.392 C 81.387 134.392,80.699 134.469,80.699 134.869 C 80.699 135.229,80.311 135.346,79.110 135.346 C 77.910 135.346,77.522 135.462,77.522 135.822 C 77.522 136.143,77.201 136.299,76.539 136.299 C 75.823 136.299,75.511 136.471,75.390 136.934 C 75.272 137.384,74.957 137.569,74.308 137.569 C 73.705 137.569,73.392 137.733,73.392 138.046 C 73.392 138.379,73.056 138.523,72.280 138.523 C 71.503 138.523,71.168 138.666,71.168 138.999 C 71.168 139.261,70.970 139.476,70.728 139.476 C 70.486 139.476,70.214 139.762,70.122 140.111 C 70.001 140.574,69.689 140.747,68.973 140.747 C 68.348 140.747,67.990 140.907,67.990 141.186 C 67.990 141.428,67.705 141.700,67.355 141.792 C 67.006 141.883,66.720 142.186,66.720 142.464 C 66.720 142.743,66.505 142.971,66.243 142.971 C 65.981 142.971,65.766 143.185,65.766 143.447 C 65.766 143.709,65.552 143.924,65.290 143.924 C 65.028 143.924,64.813 144.122,64.813 144.363 C 64.813 144.605,64.527 144.878,64.178 144.969 C 63.715 145.090,63.542 145.402,63.542 146.118 C 63.542 146.780,63.387 147.101,63.066 147.101 C 62.804 147.101,62.589 147.315,62.589 147.577 C 62.589 147.840,62.375 148.054,62.113 148.054 C 61.851 148.054,61.636 148.268,61.636 148.531 C 61.636 148.793,61.350 149.293,61.001 149.643 C 60.651 149.992,60.365 150.564,60.365 150.913 C 60.365 151.266,60.154 151.549,59.889 151.549 C 59.571 151.549,59.412 151.867,59.412 152.502 L 59.412 153.455 44.480 153.455 C 29.759 153.455,29.547 153.464,29.547 154.091 C 29.547 154.641,29.335 154.726,27.959 154.726 C 26.758 154.726,26.370 154.842,26.370 155.203 C 26.370 155.563,25.981 155.679,24.772 155.679 C 23.644 155.679,23.119 155.819,22.990 156.156 C 22.886 156.427,22.412 156.632,21.888 156.632 C 21.181 156.632,20.969 156.779,20.969 157.268 C 20.969 157.691,20.757 157.903,20.334 157.903 C 19.981 157.903,19.698 158.115,19.698 158.380 C 19.698 158.697,19.380 158.856,18.745 158.856 C 18.145 158.856,17.792 159.019,17.792 159.296 C 17.792 159.537,17.506 159.810,17.156 159.901 C 16.807 159.993,16.521 160.295,16.521 160.574 C 16.521 160.925,16.228 161.080,15.568 161.080 C 14.968 161.080,14.615 161.243,14.615 161.520 C 14.615 161.761,14.329 162.034,13.979 162.125 C 13.630 162.217,13.344 162.519,13.344 162.798 C 13.344 163.076,13.129 163.304,12.867 163.304 C 12.605 163.304,12.391 163.447,12.391 163.622 C 12.391 163.797,12.105 164.226,11.755 164.575 C 11.406 164.925,11.120 165.496,11.120 165.846 C 11.120 166.199,10.908 166.481,10.643 166.481 C 10.381 166.481,10.167 166.696,10.167 166.958 C 10.167 167.220,9.952 167.434,9.690 167.434 C 9.357 167.434,9.214 167.770,9.214 168.546 C 9.214 169.447,9.093 169.658,8.578 169.658 C 8.225 169.658,7.943 169.870,7.943 170.135 C 7.943 170.397,7.728 170.612,7.466 170.612 C 7.133 170.612,6.990 170.947,6.990 171.724 C 6.990 172.500,6.846 172.836,6.513 172.836 C 6.153 172.836,6.037 173.224,6.037 174.424 C 6.037 175.801,5.952 176.013,5.401 176.013 C 4.832 176.013,4.766 176.225,4.766 178.044 C 4.766 179.556,4.644 180.122,4.289 180.258 C 3.876 180.416,3.813 182.200,3.813 193.636 C 3.813 205.153,3.873 206.831,4.289 206.831 C 4.655 206.831,4.766 207.237,4.766 208.581 C 4.766 209.939,4.908 210.454,5.401 210.876 C 5.797 211.215,6.037 211.813,6.037 212.461 C 6.037 213.175,6.186 213.503,6.513 213.503 C 6.831 213.503,6.990 213.820,6.990 214.456 C 6.990 215.091,7.149 215.409,7.466 215.409 C 7.799 215.409,7.943 215.744,7.943 216.521 C 7.943 217.421,8.064 217.633,8.578 217.633 C 9.074 217.633,9.214 217.845,9.214 218.596 C 9.214 219.159,9.412 219.635,9.690 219.742 C 9.952 219.843,10.167 220.124,10.167 220.368 C 10.167 220.611,10.365 220.810,10.606 220.810 C 10.848 220.810,11.121 221.096,11.212 221.446 C 11.303 221.795,11.606 222.081,11.884 222.081 C 12.163 222.081,12.391 222.295,12.391 222.558 C 12.391 222.820,12.605 223.034,12.867 223.034 C 13.129 223.034,13.344 223.249,13.344 223.511 C 13.344 223.773,13.542 223.987,13.783 223.987 C 14.025 223.987,14.298 224.273,14.389 224.623 C 14.481 224.972,14.783 225.258,15.062 225.258 C 15.340 225.258,15.568 225.473,15.568 225.735 C 15.568 225.997,15.782 226.211,16.044 226.211 C 16.307 226.211,16.521 226.426,16.521 226.688 C 16.521 226.950,16.736 227.164,16.998 227.164 C 17.260 227.164,17.760 227.450,18.110 227.800 C 18.459 228.149,18.959 228.435,19.222 228.435 C 19.484 228.435,19.698 228.650,19.698 228.912 C 19.698 229.242,20.029 229.388,20.773 229.388 C 21.581 229.388,21.889 229.546,22.014 230.024 C 22.135 230.487,22.448 230.659,23.163 230.659 C 23.825 230.659,24.146 230.815,24.146 231.136 C 24.146 231.496,24.534 231.612,25.735 231.612 C 26.935 231.612,27.323 231.729,27.323 232.089 C 27.323 232.475,27.831 232.566,29.987 232.566 C 32.383 232.566,32.667 232.629,32.816 233.201 C 32.979 233.822,33.250 233.836,44.609 233.836 L 56.235 233.836 56.235 262.090 C 56.235 286.781,56.295 290.404,56.712 290.820 C 57.045 291.154,57.188 291.970,57.188 293.544 C 57.188 295.235,57.296 295.790,57.624 295.790 C 57.907 295.790,58.133 296.347,58.270 297.379 C 58.415 298.467,58.628 298.967,58.947 298.967 C 59.267 298.967,59.412 299.314,59.412 300.079 C 59.412 300.856,59.556 301.191,59.889 301.191 C 60.204 301.191,60.365 301.507,60.365 302.123 C 60.365 302.776,60.556 303.115,61.001 303.257 C 61.350 303.367,61.636 303.663,61.636 303.913 C 61.636 304.164,61.851 304.369,62.113 304.369 C 62.432 304.369,62.589 304.687,62.589 305.332 C 62.589 305.895,62.787 306.371,63.066 306.478 C 63.328 306.578,63.542 306.860,63.542 307.103 C 63.542 307.347,63.828 307.546,64.178 307.546 C 64.531 307.546,64.813 307.757,64.813 308.022 C 64.813 308.284,65.028 308.499,65.290 308.499 C 65.555 308.499,65.766 308.781,65.766 309.134 C 65.766 309.487,65.978 309.770,66.243 309.770 C 66.505 309.770,66.720 309.984,66.720 310.246 C 66.720 310.511,67.002 310.723,67.355 310.723 C 67.708 310.723,67.990 310.935,67.990 311.199 C 67.990 311.461,68.188 311.676,68.430 311.676 C 68.672 311.676,68.944 311.962,69.036 312.311 C 69.157 312.774,69.469 312.947,70.185 312.947 C 70.847 312.947,71.168 313.102,71.168 313.423 C 71.168 313.685,71.367 313.900,71.610 313.900 C 71.854 313.900,72.130 314.101,72.224 314.347 C 72.318 314.592,72.834 314.889,73.370 315.007 C 73.906 315.125,74.345 315.424,74.345 315.673 C 74.345 315.974,74.703 316.124,75.423 316.124 C 76.088 316.124,76.571 316.306,76.684 316.600 C 76.809 316.927,77.320 317.077,78.306 317.077 C 79.098 317.077,79.746 317.220,79.746 317.395 C 79.746 317.606,116.124 317.712,188.245 317.712 C 260.365 317.712,296.743 317.606,296.743 317.395 C 296.743 317.220,297.458 317.077,298.332 317.077 C 299.532 317.077,299.921 316.961,299.921 316.600 C 299.921 316.268,300.256 316.124,301.033 316.124 C 301.809 316.124,302.145 315.980,302.145 315.647 C 302.145 315.326,302.466 315.171,303.127 315.171 C 303.843 315.171,304.155 314.998,304.276 314.535 C 304.394 314.085,304.710 313.900,305.359 313.900 C 305.961 313.900,306.275 313.737,306.275 313.423 C 306.275 313.159,306.557 312.947,306.910 312.947 C 307.334 312.947,307.546 312.735,307.546 312.311 C 307.546 311.958,307.757 311.676,308.022 311.676 C 308.284 311.676,308.499 311.461,308.499 311.199 C 308.499 310.884,308.814 310.723,309.431 310.723 C 310.083 310.723,310.423 310.532,310.564 310.087 C 310.675 309.738,310.970 309.452,311.221 309.452 C 311.515 309.452,311.676 309.114,311.676 308.499 C 311.676 307.757,311.817 307.546,312.311 307.546 C 312.664 307.546,312.947 307.334,312.947 307.069 C 312.947 306.807,313.161 306.593,313.423 306.593 C 313.688 306.593,313.900 306.310,313.900 305.957 C 313.900 305.604,314.112 305.322,314.376 305.322 C 314.694 305.322,314.853 305.004,314.853 304.369 C 314.853 303.627,314.994 303.415,315.488 303.415 C 315.912 303.415,316.124 303.204,316.124 302.780 C 316.124 302.427,316.336 302.145,316.600 302.145 C 316.933 302.145,317.077 301.809,317.077 301.033 C 317.077 300.256,317.221 299.921,317.554 299.921 C 317.914 299.921,318.030 299.532,318.030 298.332 C 318.030 296.955,318.115 296.743,318.666 296.743 C 319.216 296.743,319.301 296.532,319.301 295.155 C 319.301 293.955,319.418 293.566,319.778 293.566 C 320.195 293.566,320.254 291.642,320.254 278.157 C 320.254 262.960,320.263 262.748,320.890 262.748 C 321.243 262.748,321.525 262.960,321.525 263.225 C 321.525 263.585,321.913 263.701,323.114 263.701 C 324.314 263.701,324.702 263.818,324.702 264.178 C 324.702 264.536,325.086 264.654,326.254 264.654 C 327.538 264.654,327.834 264.764,327.971 265.290 C 328.107 265.809,328.405 265.925,329.597 265.925 C 330.682 265.925,331.056 266.047,331.056 266.402 C 331.056 266.762,331.445 266.878,332.645 266.878 C 333.845 266.878,334.234 266.995,334.234 267.355 C 334.234 267.714,334.618 267.832,335.785 267.832 C 337.069 267.832,337.365 267.941,337.503 268.467 C 337.638 268.983,337.936 269.102,339.094 269.102 C 340.068 269.102,340.578 269.253,340.703 269.579 C 340.828 269.906,341.339 270.056,342.325 270.056 C 343.344 270.056,343.765 270.185,343.765 270.498 C 343.765 271.054,344.457 271.326,345.866 271.326 C 346.547 271.326,347.031 271.507,347.145 271.803 C 347.273 272.137,347.794 272.280,348.882 272.280 C 350.052 272.280,350.437 272.397,350.437 272.756 C 350.437 273.116,350.825 273.233,352.025 273.233 C 353.171 273.233,353.614 273.356,353.614 273.675 C 353.614 274.230,354.306 274.504,355.705 274.504 C 356.459 274.504,356.791 274.649,356.791 274.980 C 356.791 275.340,357.179 275.457,358.380 275.457 C 359.580 275.457,359.968 275.573,359.968 275.933 C 359.968 276.292,360.352 276.410,361.520 276.410 C 362.804 276.410,363.100 276.519,363.237 277.045 C 363.373 277.564,363.671 277.681,364.863 277.681 C 365.949 277.681,366.322 277.803,366.322 278.157 C 366.322 278.517,366.711 278.634,367.911 278.634 C 369.111 278.634,369.500 278.750,369.500 279.110 C 369.500 279.469,369.884 279.587,371.051 279.587 C 372.335 279.587,372.631 279.696,372.769 280.222 C 373.028 281.212,385.218 281.212,385.477 280.222 C 385.598 279.760,385.911 279.587,386.626 279.587 C 387.288 279.587,387.609 279.431,387.609 279.110 C 387.609 278.778,387.945 278.634,388.721 278.634 C 389.498 278.634,389.833 278.490,389.833 278.157 C 389.833 277.836,390.154 277.681,390.816 277.681 C 391.532 277.681,391.844 277.508,391.965 277.045 C 392.057 276.696,392.329 276.410,392.571 276.410 C 392.813 276.410,393.010 276.195,393.010 275.933 C 393.010 275.671,393.225 275.457,393.487 275.457 C 393.749 275.457,393.963 275.259,393.963 275.017 C 393.963 274.775,394.249 274.503,394.599 274.412 C 394.948 274.320,395.234 274.018,395.234 273.739 C 395.234 273.461,395.449 273.233,395.711 273.233 C 396.024 273.233,396.187 272.919,396.187 272.317 C 396.187 271.668,396.373 271.352,396.823 271.234 C 397.286 271.113,397.458 270.801,397.458 270.085 C 397.458 269.423,397.614 269.102,397.935 269.102 C 398.294 269.102,398.411 268.718,398.411 267.548 C 398.411 266.459,398.554 265.939,398.888 265.810 C 399.613 265.532,399.613 180.536,398.888 180.258 C 398.554 180.130,398.411 179.609,398.411 178.520 C 398.411 177.350,398.294 176.966,397.935 176.966 C 397.617 176.966,397.458 176.648,397.458 176.013 C 397.458 175.271,397.317 175.060,396.823 175.060 C 396.308 175.060,396.187 174.848,396.187 173.948 C 396.187 173.213,396.038 172.836,395.748 172.836 C 395.506 172.836,395.234 172.550,395.142 172.200 C 395.051 171.851,394.748 171.565,394.470 171.565 C 394.191 171.565,393.963 171.350,393.963 171.088 C 393.963 170.826,393.749 170.612,393.487 170.612 C 393.225 170.612,393.010 170.397,393.010 170.135 C 393.010 169.873,392.813 169.658,392.571 169.658 C 392.329 169.658,392.057 169.373,391.965 169.023 C 391.844 168.560,391.532 168.388,390.816 168.388 C 390.154 168.388,389.833 168.232,389.833 167.911 C 389.833 167.578,389.498 167.434,388.721 167.434 C 387.945 167.434,387.609 167.291,387.609 166.958 C 387.609 166.643,387.294 166.481,386.677 166.481 C 386.025 166.481,385.685 166.291,385.544 165.846 C 385.230 164.856,373.028 164.856,372.769 165.846 C 372.631 166.372,372.335 166.481,371.051 166.481 C 369.884 166.481,369.500 166.599,369.500 166.958 C 369.500 167.318,369.111 167.434,367.911 167.434 C 366.711 167.434,366.322 167.551,366.322 167.911 C 366.322 168.271,365.934 168.388,364.734 168.388 C 363.357 168.388,363.145 168.472,363.145 169.023 C 363.145 169.574,362.934 169.658,361.557 169.658 C 360.357 169.658,359.968 169.775,359.968 170.135 C 359.968 170.495,359.580 170.612,358.380 170.612 C 357.179 170.612,356.791 170.728,356.791 171.088 C 356.791 171.419,356.459 171.565,355.705 171.565 C 354.306 171.565,353.614 171.839,353.614 172.393 C 353.614 172.712,353.171 172.836,352.025 172.836 C 350.825 172.836,350.437 172.952,350.437 173.312 C 350.437 173.673,350.045 173.789,348.819 173.789 C 347.467 173.789,347.173 173.894,347.034 174.424 C 346.897 174.950,346.601 175.060,345.316 175.060 C 344.149 175.060,343.765 175.178,343.765 175.536 C 343.765 175.890,343.393 176.013,342.325 176.013 C 341.339 176.013,340.828 176.163,340.703 176.489 C 340.578 176.815,340.068 176.966,339.094 176.966 C 337.936 176.966,337.638 177.085,337.503 177.601 C 337.365 178.127,337.069 178.237,335.785 178.237 C 334.618 178.237,334.234 178.355,334.234 178.713 C 334.234 179.073,333.845 179.190,332.645 179.190 C 331.445 179.190,331.056 179.306,331.056 179.666 C 331.056 179.997,330.724 180.143,329.970 180.143 C 328.571 180.143,327.879 180.417,327.879 180.971 C 327.879 181.291,327.437 181.414,326.291 181.414 C 325.090 181.414,324.702 181.530,324.702 181.890 C 324.702 182.250,324.314 182.367,323.114 182.367 C 321.913 182.367,321.525 182.483,321.525 182.844 C 321.525 183.108,321.243 183.320,320.890 183.320 C 320.265 183.320,320.254 183.108,320.254 171.237 C 320.254 160.790,320.190 159.129,319.778 158.971 C 319.444 158.843,319.301 158.322,319.301 157.234 C 319.301 155.891,319.214 155.679,318.666 155.679 C 318.127 155.679,318.030 155.467,318.030 154.283 C 318.030 153.336,317.877 152.829,317.554 152.705 C 317.274 152.597,317.077 152.121,317.077 151.549 C 317.077 150.977,316.881 150.500,316.600 150.393 C 316.338 150.292,316.124 150.011,316.124 149.767 C 316.124 149.524,315.838 149.325,315.488 149.325 C 314.974 149.325,314.853 149.113,314.853 148.213 C 314.853 147.436,314.709 147.101,314.376 147.101 C 314.114 147.101,313.900 146.886,313.900 146.624 C 313.900 146.362,313.685 146.148,313.423 146.148 C 313.159 146.148,312.947 145.865,312.947 145.512 C 312.947 145.089,312.735 144.877,312.311 144.877 C 311.958 144.877,311.676 144.665,311.676 144.400 C 311.676 144.138,311.461 143.924,311.199 143.924 C 310.937 143.924,310.723 143.709,310.723 143.447 C 310.723 143.185,310.508 142.971,310.246 142.971 C 309.984 142.971,309.770 142.743,309.770 142.464 C 309.770 142.186,309.484 141.883,309.134 141.792 C 308.785 141.700,308.499 141.428,308.499 141.186 C 308.499 140.944,308.301 140.747,308.059 140.747 C 307.818 140.747,307.545 140.461,307.454 140.111 C 307.333 139.649,307.020 139.476,306.305 139.476 C 305.643 139.476,305.322 139.320,305.322 138.999 C 305.322 138.737,305.107 138.523,304.845 138.523 C 304.583 138.523,304.369 138.308,304.369 138.046 C 304.369 137.716,304.037 137.569,303.294 137.569 C 302.486 137.569,302.177 137.412,302.053 136.934 C 301.932 136.471,301.619 136.299,300.903 136.299 C 300.242 136.299,299.921 136.143,299.921 135.822 C 299.921 135.462,299.532 135.346,298.332 135.346 C 297.132 135.346,296.743 135.229,296.743 134.869 C 296.743 134.479,296.196 134.392,293.725 134.392 C 291.131 134.392,290.618 134.303,290.071 133.757 C 289.469 133.155,289.012 133.122,281.334 133.122 C 274.345 133.122,273.233 133.056,273.233 132.645 C 273.233 132.383,273.447 132.168,273.709 132.168 C 273.974 132.168,274.186 131.886,274.186 131.533 C 274.186 131.109,274.398 130.898,274.821 130.898 C 275.174 130.898,275.457 130.686,275.457 130.421 C 275.457 130.159,275.671 129.944,275.933 129.944 C 276.195 129.944,276.410 129.730,276.410 129.468 C 276.410 129.203,276.692 128.991,277.045 128.991 C 277.469 128.991,277.681 128.779,277.681 128.356 C 277.681 128.003,277.893 127.720,278.157 127.720 C 278.419 127.720,278.634 127.506,278.634 127.244 C 278.634 126.982,278.848 126.767,279.110 126.767 C 279.373 126.767,279.587 126.569,279.587 126.328 C 279.587 126.086,279.873 125.813,280.222 125.722 C 280.572 125.631,280.858 125.328,280.858 125.050 C 280.858 124.771,281.072 124.543,281.334 124.543 C 281.597 124.543,281.811 124.329,281.811 124.067 C 281.811 123.805,282.025 123.590,282.288 123.590 C 282.550 123.590,282.764 123.392,282.764 123.151 C 282.764 122.909,283.050 122.636,283.400 122.545 C 283.749 122.454,284.035 122.151,284.035 121.872 C 284.035 121.594,284.249 121.366,284.512 121.366 C 284.774 121.366,284.988 121.152,284.988 120.890 C 284.988 120.627,285.203 120.413,285.465 120.413 C 285.797 120.413,285.941 120.078,285.941 119.301 C 285.941 118.401,286.062 118.189,286.577 118.189 C 286.930 118.189,287.212 117.977,287.212 117.712 C 287.212 117.450,287.427 117.236,287.689 117.236 C 287.953 117.236,288.165 116.953,288.165 116.600 C 288.165 116.243,288.377 115.965,288.650 115.965 C 288.932 115.965,289.212 115.575,289.321 115.032 C 289.423 114.519,289.706 114.023,289.948 113.930 C 290.191 113.837,290.389 113.328,290.389 112.798 C 290.389 112.154,290.547 111.835,290.866 111.835 C 291.131 111.835,291.342 111.552,291.342 111.199 C 291.342 110.776,291.554 110.564,291.978 110.564 C 292.467 110.564,292.613 110.352,292.613 109.645 C 292.613 109.121,292.818 108.647,293.090 108.543 C 293.368 108.436,293.566 107.960,293.566 107.397 C 293.566 106.752,293.724 106.434,294.043 106.434 C 294.376 106.434,294.519 106.098,294.519 105.322 C 294.519 104.421,294.640 104.210,295.155 104.210 C 295.706 104.210,295.790 103.998,295.790 102.621 C 295.790 101.421,295.907 101.033,296.267 101.033 C 296.625 101.033,296.743 100.648,296.743 99.481 C 296.743 98.197,296.853 97.901,297.379 97.763 C 297.898 97.628,298.014 97.330,298.014 96.138 C 298.014 95.052,298.136 94.678,298.491 94.678 C 298.866 94.678,298.967 94.236,298.967 92.603 C 298.967 91.052,299.088 90.482,299.444 90.345 C 299.822 90.200,299.921 89.533,299.921 87.134 C 299.921 84.616,300.014 84.037,300.477 83.699 C 301.551 82.914,301.470 67.037,300.391 67.037 C 300.003 67.037,299.921 66.398,299.921 63.374 C 299.921 60.410,299.829 59.675,299.444 59.527 C 299.089 59.391,298.967 58.825,298.967 57.313 C 298.967 55.719,298.865 55.282,298.491 55.282 C 298.148 55.282,298.014 54.932,298.014 54.037 C 298.014 52.485,297.757 51.787,297.186 51.787 C 296.873 51.787,296.743 51.366,296.743 50.347 C 296.743 49.361,296.593 48.850,296.267 48.725 C 295.999 48.622,295.790 48.149,295.790 47.644 C 295.790 47.026,295.593 46.684,295.155 46.545 C 294.710 46.404,294.519 46.064,294.519 45.411 C 294.519 44.795,294.358 44.480,294.043 44.480 C 293.710 44.480,293.566 44.144,293.566 43.368 C 293.566 42.591,293.423 42.256,293.090 42.256 C 292.769 42.256,292.613 41.935,292.613 41.273 C 292.613 40.557,292.440 40.245,291.978 40.124 C 291.528 40.006,291.342 39.690,291.342 39.042 C 291.342 38.439,291.179 38.125,290.866 38.125 C 290.533 38.125,290.389 37.790,290.389 37.014 C 290.389 36.279,290.240 35.902,289.950 35.902 C 289.708 35.902,289.435 35.616,289.344 35.266 C 289.253 34.917,288.950 34.631,288.672 34.631 C 288.321 34.631,288.165 34.338,288.165 33.678 C 288.165 33.078,288.002 32.724,287.726 32.724 C 287.484 32.724,287.211 32.438,287.120 32.089 C 287.029 31.739,286.726 31.454,286.448 31.454 C 286.169 31.454,285.941 31.239,285.941 30.977 C 285.941 30.715,285.727 30.500,285.465 30.500 C 285.146 30.500,284.988 30.182,284.988 29.537 C 284.988 28.974,284.790 28.498,284.512 28.391 C 284.249 28.291,284.035 28.009,284.035 27.766 C 284.035 27.522,283.749 27.323,283.400 27.323 C 283.047 27.323,282.764 27.111,282.764 26.847 C 282.764 26.585,282.550 26.370,282.288 26.370 C 282.023 26.370,281.811 26.088,281.811 25.735 C 281.811 25.382,281.599 25.099,281.334 25.099 C 281.072 25.099,280.858 24.885,280.858 24.623 C 280.858 24.358,280.575 24.146,280.222 24.146 C 279.799 24.146,279.587 23.934,279.587 23.511 C 279.587 23.158,279.375 22.875,279.110 22.875 C 278.848 22.875,278.634 22.661,278.634 22.399 C 278.634 22.137,278.419 21.922,278.157 21.922 C 277.895 21.922,277.681 21.708,277.681 21.446 C 277.681 21.181,277.398 20.969,277.045 20.969 C 276.622 20.969,276.410 20.757,276.410 20.334 C 276.410 19.981,276.198 19.698,275.933 19.698 C 275.671 19.698,275.457 19.484,275.457 19.222 C 275.457 18.957,275.174 18.745,274.821 18.745 C 274.468 18.745,274.186 18.533,274.186 18.268 C 274.186 17.951,273.868 17.792,273.233 17.792 C 272.491 17.792,272.280 17.651,272.280 17.156 C 272.280 16.733,272.068 16.521,271.644 16.521 C 271.291 16.521,271.009 16.309,271.009 16.044 C 271.009 15.782,270.794 15.568,270.532 15.568 C 270.270 15.568,270.056 15.369,270.056 15.127 C 270.056 14.874,269.580 14.596,268.944 14.477 C 268.278 14.352,267.832 14.083,267.832 13.806 C 267.832 13.552,267.563 13.344,267.235 13.344 C 266.907 13.344,266.461 13.129,266.243 12.867 C 266.026 12.605,265.596 12.391,265.288 12.391 C 264.980 12.391,264.654 12.105,264.562 11.755 C 264.441 11.293,264.129 11.120,263.413 11.120 C 262.752 11.120,262.431 10.964,262.431 10.643 C 262.431 10.326,262.113 10.167,261.477 10.167 C 260.842 10.167,260.524 10.008,260.524 9.690 C 260.524 9.357,260.189 9.214,259.412 9.214 C 258.512 9.214,258.300 9.093,258.300 8.578 C 258.300 8.064,258.088 7.943,257.188 7.943 C 256.412 7.943,256.076 7.799,256.076 7.466 C 256.076 7.106,255.688 6.990,254.488 6.990 C 253.287 6.990,252.899 6.873,252.899 6.513 C 252.899 6.153,252.511 6.037,251.311 6.037 C 249.934 6.037,249.722 5.952,249.722 5.401 C 249.722 4.850,249.510 4.766,248.133 4.766 C 246.933 4.766,246.545 4.649,246.545 4.289 C 246.545 3.903,246.037 3.813,243.881 3.813 C 241.485 3.813,241.201 3.749,241.052 3.177 C 240.898 2.588,240.618 2.542,237.179 2.542 C 234.309 2.542,233.366 2.434,232.997 2.065 C 232.534 1.602,224.214 1.395,222.637 1.808 M236.060 16.563 C 244.105 17.749,249.296 19.738,258.024 24.978 C 259.008 25.569,259.902 26.052,260.010 26.052 C 260.118 26.052,260.469 26.303,260.790 26.608 C 261.110 26.914,261.702 27.379,262.105 27.641 C 266.191 30.301,275.431 39.866,276.836 42.891 C 276.958 43.153,277.405 43.940,277.830 44.639 C 278.254 45.338,278.748 46.231,278.927 46.624 C 279.107 47.017,279.384 47.339,279.544 47.339 C 279.703 47.339,279.928 47.840,280.043 48.451 C 280.157 49.063,280.388 49.563,280.555 49.563 C 280.721 49.563,280.858 49.726,280.858 49.925 C 280.858 50.125,281.159 50.947,281.528 51.752 C 282.643 54.191,282.956 55.022,283.698 57.506 C 284.089 58.817,284.557 60.318,284.738 60.842 C 284.918 61.366,285.171 62.653,285.300 63.701 C 285.430 64.750,285.729 66.465,285.965 67.514 C 286.593 70.298,286.502 80.831,285.827 83.558 C 285.545 84.694,285.313 86.169,285.310 86.836 C 285.308 87.503,285.136 88.360,284.930 88.742 C 284.723 89.124,284.449 90.008,284.322 90.707 C 284.058 92.154,283.193 94.750,282.558 95.998 C 282.322 96.462,282.129 97.041,282.129 97.284 C 282.129 97.527,281.632 98.649,281.024 99.776 C 280.416 100.904,279.916 102.065,279.912 102.356 C 279.908 102.648,279.789 102.934,279.648 102.992 C 279.506 103.050,278.899 103.932,278.297 104.952 C 277.696 105.971,277.061 107.046,276.886 107.340 C 274.600 111.181,269.166 117.131,264.813 120.559 C 263.940 121.247,263.080 121.961,262.903 122.144 C 262.484 122.580,260.595 123.908,260.394 123.908 C 260.308 123.908,259.624 124.319,258.872 124.821 C 257.606 125.667,251.926 128.735,248.347 130.505 C 242.010 133.639,225.451 135.134,216.998 133.335 C 213.644 132.621,209.738 131.596,208.896 131.208 C 208.546 131.047,207.331 130.570,206.195 130.147 C 191.061 124.509,176.523 109.364,172.148 94.678 C 171.965 94.067,171.707 93.423,171.573 93.249 C 171.439 93.074,171.229 92.359,171.105 91.660 C 170.981 90.961,170.693 89.746,170.464 88.959 C 168.786 83.190,168.270 72.982,169.349 66.878 C 170.281 61.607,171.088 58.187,171.759 56.664 C 172.002 56.113,172.200 55.524,172.200 55.354 C 172.200 54.863,175.075 48.282,175.701 47.339 C 175.875 47.077,176.192 46.505,176.406 46.068 C 176.619 45.631,176.883 45.203,176.991 45.115 C 177.100 45.028,177.371 44.599,177.595 44.162 C 180.362 38.759,188.855 29.977,195.234 25.922 C 196.283 25.256,197.510 24.454,197.961 24.141 C 199.116 23.338,204.320 20.750,205.947 20.170 C 216.926 16.251,226.313 15.126,236.060 16.563 M223.511 42.615 C 205.626 44.860,192.791 61.967,195.524 79.917 C 199.500 106.027,230.321 116.989,250.040 99.307 C 264.746 86.119,264.220 62.823,248.928 50.002 C 241.779 44.008,232.921 41.434,223.511 42.615 M232.948 56.526 C 235.134 57.151,238.664 58.840,239.613 59.714 C 243.047 62.879,245.130 65.596,245.741 67.710 C 245.861 68.126,246.193 68.967,246.479 69.579 C 247.357 71.463,247.232 79.070,246.285 81.334 C 245.234 83.847,244.537 85.235,244.083 85.721 C 243.864 85.954,243.682 86.242,243.678 86.361 C 243.666 86.737,241.042 89.419,239.555 90.574 C 233.181 95.531,222.942 95.560,216.387 90.640 C 214.796 89.446,212.297 86.807,212.065 86.076 C 211.959 85.740,211.764 85.465,211.632 85.465 C 211.500 85.465,211.090 84.786,210.721 83.956 C 203.757 68.301,216.996 51.964,232.948 56.526 M128.718 69.123 C 140.229 71.279,148.319 78.077,153.649 90.071 C 159.104 102.347,153.559 119.966,141.589 128.395 C 132.205 135.002,118.929 136.061,108.486 131.036 C 97.085 125.550,89.913 114.148,89.913 101.509 C 89.913 80.994,108.642 65.364,128.718 69.123 M119.142 82.139 C 99.230 86.118,97.426 113.114,116.600 120.185 C 118.953 121.052,126.163 121.154,128.356 120.350 C 137.399 117.035,142.335 110.349,142.335 101.414 C 142.335 89.118,131.069 79.755,119.142 82.139 M126.516 96.637 C 132.137 101.089,126.851 109.954,120.302 107.057 C 113.936 104.241,116.399 94.999,123.384 95.496 C 124.876 95.602,125.493 95.827,126.516 96.637 M168.467 115.472 C 168.948 116.074,169.341 116.705,169.341 116.875 C 169.341 117.044,169.456 117.231,169.598 117.289 C 170.448 117.640,171.916 120.488,171.716 121.399 C 171.539 122.205,171.614 122.392,172.170 122.537 C 172.536 122.633,172.836 122.909,172.836 123.151 C 172.836 123.392,173.050 123.590,173.312 123.590 C 173.574 123.590,173.789 123.805,173.789 124.067 C 173.789 124.329,173.987 124.543,174.228 124.543 C 174.470 124.543,174.743 124.829,174.834 125.179 C 174.925 125.528,175.228 125.814,175.506 125.814 C 175.785 125.814,176.013 126.029,176.013 126.291 C 176.013 126.553,176.227 126.767,176.489 126.767 C 176.751 126.767,176.966 126.982,176.966 127.244 C 176.966 127.506,177.194 127.720,177.472 127.720 C 177.751 127.720,178.053 128.006,178.145 128.356 C 178.236 128.705,178.509 128.991,178.750 128.991 C 178.992 128.991,179.190 129.206,179.190 129.468 C 179.190 129.730,179.404 129.944,179.666 129.944 C 179.929 129.944,180.143 130.159,180.143 130.421 C 180.143 130.686,180.425 130.898,180.778 130.898 C 181.202 130.898,181.414 131.109,181.414 131.533 C 181.414 131.882,181.613 132.168,181.856 132.168 C 182.100 132.168,182.381 132.383,182.482 132.645 C 182.642 133.064,181.159 133.122,170.284 133.122 C 159.491 133.122,157.903 133.060,157.903 132.645 C 157.903 132.383,158.118 132.168,158.380 132.168 C 158.644 132.168,158.856 131.886,158.856 131.533 C 158.856 131.180,159.068 130.898,159.333 130.898 C 159.595 130.898,159.809 130.646,159.809 130.339 C 159.809 130.031,160.095 129.601,160.445 129.383 C 160.794 129.164,161.080 128.701,161.080 128.353 C 161.080 128.003,161.293 127.720,161.557 127.720 C 161.819 127.720,162.033 127.506,162.033 127.244 C 162.033 126.982,162.248 126.767,162.510 126.767 C 162.775 126.767,162.986 126.485,162.986 126.132 C 162.986 125.779,163.198 125.496,163.463 125.496 C 163.725 125.496,163.940 125.358,163.940 125.189 C 163.940 125.019,163.725 124.963,163.463 125.064 C 162.710 125.353,162.862 123.341,163.732 121.508 C 164.655 119.564,165.425 117.647,165.702 116.600 C 166.324 114.251,167.206 113.891,168.467 115.472 M271.771 133.365 C 271.579 133.493,271.340 133.813,271.240 134.075 C 271.119 134.393,271.051 134.314,271.034 133.836 C 271.017 133.356,271.191 133.123,271.565 133.126 C 271.908 133.129,271.987 133.221,271.771 133.365 M293.249 148.302 C 295.818 149.368,296.435 149.683,298.014 150.731 C 302.021 153.392,305.077 157.669,306.316 162.351 C 306.935 164.691,306.989 286.566,306.372 289.718 C 305.122 296.110,300.215 301.755,293.814 304.165 C 289.978 305.609,288.179 305.633,186.180 305.631 C 89.820 305.629,86.117 305.589,83.717 304.524 C 83.193 304.292,82.407 303.999,81.970 303.873 C 78.931 303.000,73.663 298.031,72.055 294.519 C 69.653 289.275,69.775 293.667,70.108 223.987 L 70.406 161.875 71.160 160.127 C 71.575 159.166,72.318 157.765,72.812 157.013 C 73.305 156.262,73.709 155.592,73.709 155.525 C 73.709 154.684,78.473 150.658,81.017 149.349 C 85.045 147.275,74.854 147.448,188.721 147.516 L 291.501 147.577 293.249 148.302 M56.678 167.619 C 57.077 168.659,56.893 219.072,56.489 219.476 C 55.992 219.973,37.962 220.004,34.415 219.513 C 26.211 218.378,19.520 211.961,17.942 203.713 C 17.290 200.308,17.290 186.666,17.942 183.261 C 19.399 175.646,25.196 169.620,32.883 167.730 C 36.111 166.936,56.379 166.842,56.678 167.619 M160.025 167.925 C 158.403 168.520,156.779 170.197,156.332 171.739 C 156.063 172.667,155.992 187.160,156.062 227.214 L 156.156 281.434 157.134 282.643 C 160.313 286.571,163.549 286.191,170.022 281.128 C 170.659 280.630,171.331 280.222,171.515 280.222 C 171.700 280.222,171.965 280.044,172.105 279.825 C 172.245 279.607,172.826 279.100,173.397 278.700 C 174.344 278.035,178.543 275.039,184.031 271.111 C 185.209 270.268,187.210 268.836,188.479 267.928 C 189.748 267.021,191.787 265.541,193.010 264.640 C 194.773 263.342,209.647 252.721,212.586 250.662 C 212.950 250.407,213.934 249.698,214.774 249.087 C 215.613 248.475,216.614 247.760,216.998 247.498 C 217.383 247.236,218.680 246.307,219.882 245.433 C 221.083 244.559,223.075 243.129,224.309 242.256 C 225.543 241.382,227.490 239.973,228.637 239.124 C 229.784 238.275,231.865 236.798,233.261 235.841 C 234.657 234.885,236.779 233.364,237.976 232.460 C 239.172 231.557,241.229 230.042,242.547 229.093 C 249.259 224.259,249.074 219.767,241.989 215.534 C 241.143 215.028,240.071 214.379,239.606 214.092 C 236.947 212.446,225.945 205.708,224.367 204.759 C 224.071 204.581,223.185 204.012,222.399 203.495 C 221.612 202.978,220.726 202.409,220.429 202.230 C 217.211 200.297,212.846 197.648,212.041 197.141 C 210.884 196.411,207.744 194.478,206.726 193.868 C 206.347 193.641,204.821 192.684,203.336 191.742 C 201.851 190.800,199.492 189.356,198.094 188.533 C 196.696 187.710,195.481 186.946,195.393 186.834 C 195.306 186.723,193.686 185.708,191.794 184.579 C 189.902 183.450,188.013 182.311,187.596 182.049 C 183.394 179.408,181.177 178.038,180.778 177.837 C 180.516 177.705,179.218 176.918,177.894 176.090 C 175.192 174.399,169.604 170.942,168.772 170.446 C 168.473 170.268,167.605 169.720,166.842 169.228 C 164.120 167.473,162.238 167.113,160.025 167.925 M380.891 179.842 C 382.832 180.290,384.599 182.217,384.869 184.181 C 385.131 186.093,385.127 260.000,384.865 261.912 C 384.292 266.091,379.089 267.808,374.275 265.406 C 373.725 265.132,372.970 264.988,372.596 265.085 C 372.038 265.231,357.231 260.642,354.726 259.546 C 354.376 259.393,351.589 258.469,348.531 257.493 C 345.473 256.516,342.470 255.521,341.859 255.280 C 341.247 255.039,340.389 254.753,339.952 254.645 C 339.515 254.537,338.872 254.327,338.523 254.179 C 338.173 254.031,337.244 253.706,336.458 253.455 C 329.873 251.359,321.183 248.345,320.695 247.988 C 319.810 247.341,319.751 198.771,320.634 198.125 C 320.930 197.909,322.645 197.265,324.446 196.695 C 326.247 196.125,328.221 195.476,328.832 195.253 C 330.279 194.726,331.603 194.280,334.710 193.274 C 336.108 192.821,338.253 192.099,339.476 191.669 C 340.699 191.239,342.986 190.475,344.559 189.972 C 349.545 188.379,350.580 188.034,351.231 187.754 C 351.581 187.603,352.367 187.341,352.979 187.171 C 353.590 187.001,357.236 185.801,361.080 184.504 C 370.847 181.209,371.225 181.096,372.530 181.096 C 373.169 181.096,374.150 180.879,374.709 180.614 C 375.646 180.169,377.900 179.614,379.031 179.550 C 379.293 179.535,380.130 179.667,380.891 179.842 M171.870 186.995 C 172.816 187.618,174.957 188.939,176.628 189.930 C 178.299 190.922,179.714 191.842,179.772 191.975 C 179.831 192.107,180.071 192.216,180.306 192.216 C 180.541 192.216,180.922 192.397,181.153 192.617 C 181.698 193.138,183.266 194.172,184.273 194.676 C 184.710 194.894,185.577 195.395,186.199 195.789 C 188.152 197.025,191.894 199.347,192.626 199.776 C 193.012 200.002,194.186 200.753,195.234 201.444 C 196.283 202.136,197.534 202.858,198.014 203.050 C 198.495 203.241,198.888 203.527,198.888 203.685 C 198.888 203.842,199.025 203.971,199.192 203.971 C 199.455 203.971,201.287 205.074,202.224 205.796 C 202.399 205.931,202.899 206.220,203.336 206.439 C 203.773 206.658,204.511 207.086,204.976 207.390 C 205.441 207.694,206.991 208.658,208.419 209.531 C 209.848 210.405,211.347 211.334,211.749 211.597 C 212.152 211.859,213.319 212.564,214.342 213.164 C 215.366 213.764,216.275 214.336,216.362 214.435 C 216.541 214.638,216.700 214.736,220.606 217.066 C 222.153 217.990,223.749 218.959,224.152 219.222 C 224.555 219.484,225.576 220.111,226.421 220.616 C 229.909 222.698,229.882 222.927,225.806 225.801 C 224.019 227.060,222.272 228.314,221.922 228.585 C 221.573 228.857,220.500 229.645,219.539 230.337 C 218.578 231.028,217.619 231.741,217.408 231.921 C 217.197 232.101,216.949 232.248,216.857 232.248 C 216.765 232.248,215.695 232.998,214.479 233.916 C 213.264 234.833,211.257 236.299,210.020 237.172 C 208.782 238.046,207.062 239.261,206.195 239.873 C 202.524 242.465,200.010 244.259,197.959 245.751 C 196.758 246.624,195.458 247.554,195.071 247.816 C 194.683 248.078,193.683 248.828,192.848 249.484 C 192.014 250.139,191.184 250.675,191.006 250.675 C 190.827 250.675,190.633 250.788,190.575 250.927 C 190.516 251.065,189.539 251.816,188.403 252.595 C 187.268 253.374,186.267 254.088,186.180 254.182 C 185.724 254.672,183.299 255.328,182.422 255.199 C 181.645 255.085,181.414 255.169,181.414 255.564 C 181.414 255.846,181.186 256.076,180.908 256.076 C 180.629 256.076,180.326 256.362,180.235 256.712 C 180.117 257.162,179.802 257.347,179.153 257.347 C 178.550 257.347,178.237 257.510,178.237 257.824 C 178.237 258.088,177.954 258.300,177.601 258.300 C 177.178 258.300,176.966 258.512,176.966 258.936 C 176.966 259.289,176.754 259.571,176.489 259.571 C 176.227 259.571,176.013 259.786,176.013 260.048 C 176.013 260.380,175.677 260.524,174.901 260.524 C 174.124 260.524,173.789 260.668,173.789 261.001 C 173.789 261.263,173.574 261.477,173.312 261.477 C 173.047 261.477,172.836 261.760,172.836 262.113 C 172.836 262.536,172.624 262.748,172.200 262.748 C 171.847 262.748,171.565 262.960,171.565 263.225 C 171.565 263.542,171.247 263.701,170.612 263.701 L 169.658 263.701 169.658 259.382 C 169.658 255.331,169.619 255.053,169.023 254.897 C 168.381 254.730,167.963 186.710,168.599 186.074 C 169.077 185.596,170.246 185.925,171.870 186.995 " stroke="none" fill="#040505" fill-rule="evenodd"></path><path id="path3" d="M88.006 148.069 C 84.815 148.348,81.879 149.336,79.297 150.999 C 76.270 152.948,71.803 158.649,71.803 160.562 C 71.803 160.793,71.601 161.398,71.354 161.905 C 70.844 162.950,70.348 283.699,70.835 288.006 C 71.671 295.404,76.759 301.444,84.342 304.038 C 87.939 305.269,288.165 304.998,288.165 303.762 C 288.165 303.659,289.383 303.558,290.872 303.539 C 292.896 303.512,293.723 303.372,294.153 302.983 C 294.469 302.697,294.909 302.462,295.130 302.462 C 295.351 302.462,295.895 302.176,296.339 301.827 C 296.783 301.477,297.327 301.191,297.547 301.191 C 297.766 301.191,298.029 300.977,298.129 300.715 C 298.230 300.453,298.455 300.238,298.629 300.238 C 299.366 300.238,303.415 295.566,303.415 294.715 C 303.415 294.422,303.613 294.106,303.855 294.013 C 304.096 293.921,304.387 293.264,304.500 292.553 C 304.614 291.843,304.917 290.962,305.173 290.596 C 306.023 289.382,305.859 164.384,305.004 161.951 C 304.654 160.957,304.369 159.869,304.369 159.534 C 304.369 159.198,304.154 158.842,303.892 158.741 C 303.630 158.641,303.415 158.341,303.415 158.076 C 303.415 157.607,302.894 156.844,301.747 155.631 C 301.442 155.308,301.191 154.901,301.191 154.726 C 301.191 154.551,300.977 154.408,300.715 154.408 C 300.453 154.408,300.238 154.194,300.238 153.932 C 300.238 153.670,300.091 153.455,299.911 153.455 C 299.731 153.455,299.124 152.955,298.563 152.343 C 298.001 151.732,297.308 151.231,297.023 151.231 C 296.737 151.231,296.326 151.017,296.108 150.755 C 295.890 150.492,295.549 150.278,295.350 150.278 C 295.150 150.278,294.453 149.992,293.801 149.643 C 292.939 149.180,292.008 149.007,290.390 149.007 C 288.717 149.007,288.165 148.899,288.165 148.572 C 288.165 148.251,287.431 148.083,285.385 147.936 C 281.706 147.672,91.080 147.800,88.006 148.069 M85.782 149.643 C 85.156 150.047,83.876 150.047,83.876 149.643 C 83.876 149.468,84.412 149.327,85.068 149.330 C 85.954 149.333,86.137 149.413,85.782 149.643 M83.384 150.560 C 82.743 151.159,81.652 151.295,81.652 150.776 C 81.652 150.428,81.957 150.278,82.669 150.278 C 83.276 150.278,83.564 150.392,83.384 150.560 M81.017 151.708 C 80.799 151.970,80.424 152.184,80.183 152.184 C 79.943 152.184,79.746 151.970,79.746 151.708 C 79.746 151.405,80.050 151.231,80.579 151.231 C 81.284 151.231,81.351 151.305,81.017 151.708 M77.131 154.786 C 76.935 155.375,76.251 155.472,76.251 154.911 C 76.251 154.635,76.477 154.408,76.754 154.408 C 77.031 154.408,77.200 154.578,77.131 154.786 M75.933 155.838 C 75.933 156.100,75.790 156.315,75.616 156.315 C 75.441 156.315,75.298 156.100,75.298 155.838 C 75.298 155.576,75.441 155.361,75.616 155.361 C 75.790 155.361,75.933 155.576,75.933 155.838 M74.980 157.249 C 74.980 157.588,74.837 157.954,74.662 158.062 C 74.482 158.173,74.345 157.906,74.345 157.445 C 74.345 156.998,74.488 156.632,74.662 156.632 C 74.837 156.632,74.980 156.910,74.980 157.249 M74.027 158.996 C 74.027 159.248,73.894 159.536,73.731 159.637 C 73.354 159.870,72.974 159.275,73.233 158.856 C 73.525 158.384,74.027 158.472,74.027 158.996 M294.519 159.492 C 294.519 159.845,294.308 160.127,294.043 160.127 C 293.778 160.127,293.566 159.845,293.566 159.492 C 293.566 159.139,293.778 158.856,294.043 158.856 C 294.308 158.856,294.519 159.139,294.519 159.492 M73.063 161.160 C 73.056 161.378,72.847 161.914,72.597 162.351 L 72.143 163.145 72.132 161.954 C 72.124 161.102,72.256 160.763,72.597 160.763 C 72.859 160.763,73.069 160.941,73.063 161.160 M160.436 165.833 C 161.149 166.284,160.645 166.536,159.285 166.409 C 158.093 166.298,158.082 166.286,158.856 165.932 C 159.851 165.477,159.870 165.476,160.436 165.833 M165.133 167.514 C 168.063 169.133,174.996 173.373,176.966 174.750 C 177.228 174.933,177.755 175.256,178.137 175.468 C 178.890 175.887,183.553 178.735,184.750 179.508 C 186.516 180.648,192.700 184.394,193.646 184.896 C 193.995 185.081,195.139 185.795,196.187 186.483 C 197.785 187.529,201.500 189.850,203.595 191.108 C 203.889 191.285,204.488 191.660,204.925 191.942 C 206.782 193.142,210.240 195.270,211.048 195.711 C 212.117 196.294,219.380 200.816,223.955 203.746 C 225.807 204.933,227.716 206.072,228.197 206.278 C 228.678 206.484,229.071 206.764,229.071 206.900 C 229.071 207.037,229.211 207.149,229.382 207.149 C 229.554 207.149,230.519 207.683,231.527 208.337 C 232.535 208.990,233.602 209.669,233.899 209.846 C 244.813 216.348,246.285 217.422,247.375 219.678 C 248.137 221.255,248.401 223.784,247.840 224.131 C 247.679 224.231,247.460 224.706,247.355 225.187 C 247.101 226.342,245.871 227.581,242.869 229.706 C 241.512 230.667,239.531 232.108,238.469 232.907 C 237.406 233.707,235.822 234.864,234.948 235.478 C 234.075 236.092,231.644 237.823,229.547 239.325 C 227.450 240.827,225.050 242.530,224.214 243.109 C 223.377 243.688,221.700 244.877,220.488 245.751 C 219.276 246.624,217.276 248.054,216.045 248.928 C 214.813 249.801,213.494 250.773,213.113 251.087 C 212.731 251.400,211.912 251.967,211.293 252.346 C 210.674 252.724,210.006 253.183,209.809 253.364 C 209.612 253.545,209.127 253.908,208.732 254.170 C 208.337 254.432,207.622 254.966,207.144 255.356 C 206.666 255.747,205.486 256.605,204.523 257.263 C 201.781 259.136,195.434 263.648,193.276 265.258 C 192.199 266.062,191.005 266.934,190.623 267.196 C 190.242 267.458,189.243 268.173,188.403 268.785 C 187.564 269.396,186.563 270.111,186.179 270.373 C 185.794 270.635,184.497 271.565,183.297 272.438 C 182.096 273.312,180.012 274.813,178.667 275.774 C 177.322 276.736,175.321 278.201,174.222 279.031 C 173.123 279.861,172.082 280.540,171.910 280.540 C 171.737 280.540,171.482 280.719,171.342 280.937 C 171.016 281.447,169.143 282.764,168.745 282.764 C 168.577 282.764,168.393 282.874,168.335 283.009 C 168.276 283.143,167.371 283.822,166.322 284.518 C 162.159 287.280,157.090 285.641,155.563 281.040 C 154.753 278.599,154.765 174.080,155.576 171.819 C 157.069 167.651,161.649 165.588,165.133 167.514 M169.341 168.422 C 169.341 168.578,169.055 168.705,168.705 168.705 C 168.086 168.705,167.877 168.368,168.260 167.986 C 168.514 167.731,169.341 168.064,169.341 168.422 M171.088 169.341 C 171.200 169.521,170.933 169.658,170.471 169.658 C 170.024 169.658,169.658 169.515,169.658 169.341 C 169.658 169.166,169.936 169.023,170.275 169.023 C 170.614 169.023,170.980 169.166,171.088 169.341 M154.726 172.874 C 154.726 174.285,154.662 174.449,154.249 174.106 C 153.695 173.646,153.635 172.734,154.102 171.862 C 154.608 170.916,154.726 171.109,154.726 172.874 M295.631 174.107 C 295.523 174.283,295.229 174.819,294.979 175.299 L 294.523 176.172 294.521 174.980 C 294.520 173.989,294.629 173.789,295.174 173.789 C 295.533 173.789,295.739 173.932,295.631 174.107 M179.825 174.776 C 179.825 174.932,179.539 175.060,179.190 175.060 C 178.571 175.060,178.362 174.723,178.744 174.340 C 178.999 174.086,179.825 174.419,179.825 174.776 M154.726 183.994 C 154.726 189.076,154.670 189.706,154.249 189.357 C 153.381 188.636,153.707 178.237,154.598 178.237 C 154.668 178.237,154.726 180.828,154.726 183.994 M188.562 180.143 C 188.879 180.492,189.321 180.778,189.546 180.778 C 189.771 180.778,190.043 180.921,190.151 181.096 C 190.262 181.276,189.995 181.414,189.534 181.414 C 189.023 181.414,188.721 181.237,188.721 180.937 C 188.721 180.641,188.421 180.461,187.927 180.461 C 187.156 180.461,186.912 180.151,187.344 179.719 C 187.687 179.377,187.952 179.469,188.562 180.143 M196.761 185.112 C 197.100 185.450,196.676 185.846,196.179 185.656 C 195.924 185.558,195.794 185.350,195.890 185.193 C 196.096 184.860,196.474 184.825,196.761 185.112 M198.596 186.180 C 198.757 186.180,198.888 186.322,198.888 186.497 C 198.888 186.672,198.531 186.815,198.094 186.815 C 197.576 186.815,197.299 186.637,197.299 186.304 C 197.299 185.969,197.472 185.860,197.802 185.987 C 198.078 186.093,198.436 186.180,198.596 186.180 M200.318 187.450 C 200.426 187.625,200.220 187.768,199.860 187.768 C 199.500 187.768,199.206 187.625,199.206 187.450 C 199.206 187.276,199.412 187.133,199.664 187.133 C 199.915 187.133,200.210 187.276,200.318 187.450 M295.790 189.674 C 295.790 189.849,295.669 189.992,295.521 189.992 C 295.373 189.992,295.097 190.314,294.907 190.707 C 294.582 191.381,294.561 191.363,294.541 190.389 C 294.524 189.561,294.645 189.357,295.155 189.357 C 295.504 189.357,295.790 189.500,295.790 189.674 M207.388 191.819 C 207.470 192.068,207.213 192.216,206.698 192.216 C 206.165 192.216,205.878 192.042,205.878 191.717 C 205.878 191.120,207.187 191.208,207.388 191.819 M154.716 199.444 C 154.707 204.751,154.655 205.334,154.239 204.784 C 153.406 203.683,153.748 193.487,154.617 193.487 C 154.677 193.487,154.721 196.168,154.716 199.444 M210.582 193.828 C 210.520 194.016,210.333 194.170,210.167 194.170 C 210.001 194.170,209.814 194.016,209.751 193.828 C 209.689 193.641,209.876 193.487,210.167 193.487 C 210.458 193.487,210.645 193.641,210.582 193.828 M215.985 197.280 C 216.064 197.518,215.945 197.637,215.707 197.558 C 215.478 197.481,215.227 197.231,215.151 197.002 C 215.071 196.763,215.191 196.644,215.429 196.724 C 215.658 196.800,215.908 197.050,215.985 197.280 M217.181 198.519 C 216.503 198.651,216.227 198.411,216.518 197.941 C 216.675 197.686,216.877 197.703,217.234 197.999 C 217.683 198.371,217.677 198.422,217.181 198.519 M219.698 199.206 C 219.810 199.387,219.536 199.523,219.063 199.523 C 218.589 199.523,218.316 199.387,218.427 199.206 C 218.535 199.031,218.821 198.888,219.063 198.888 C 219.304 198.888,219.590 199.031,219.698 199.206 M226.211 203.688 C 226.211 203.844,225.925 203.971,225.576 203.971 C 224.957 203.971,224.748 203.634,225.130 203.252 C 225.385 202.997,226.211 203.331,226.211 203.688 M228.435 204.777 C 228.435 204.858,228.149 204.925,227.800 204.925 C 227.440 204.925,227.164 204.713,227.164 204.437 C 227.164 204.048,227.293 204.018,227.800 204.289 C 228.149 204.476,228.435 204.696,228.435 204.777 M295.489 205.063 C 295.281 205.314,294.990 205.922,294.842 206.413 C 294.595 207.237,294.572 207.201,294.547 205.957 C 294.523 204.784,294.608 204.607,295.194 204.607 C 295.744 204.607,295.798 204.691,295.489 205.063 M154.726 214.654 C 154.726 219.877,154.670 220.524,154.249 220.175 C 153.412 219.480,153.746 208.737,154.605 208.737 C 154.671 208.737,154.726 211.400,154.726 214.654 M237.014 210.178 C 237.014 210.259,236.728 210.326,236.378 210.326 C 236.019 210.326,235.743 210.114,235.743 209.838 C 235.743 209.449,235.871 209.419,236.378 209.690 C 236.728 209.877,237.014 210.097,237.014 210.178 M245.592 215.579 C 245.592 215.660,245.306 215.727,244.956 215.727 C 244.597 215.727,244.321 215.515,244.321 215.239 C 244.321 214.850,244.449 214.820,244.956 215.091 C 245.306 215.278,245.592 215.498,245.592 215.579 M247.908 218.269 C 247.679 219.143,247.498 219.064,247.498 218.091 C 247.498 217.644,247.628 217.358,247.786 217.456 C 247.944 217.554,247.999 217.919,247.908 218.269 M295.790 220.204 C 295.790 220.395,295.504 220.915,295.155 221.359 L 294.519 222.167 294.519 221.012 C 294.519 220.069,294.636 219.857,295.155 219.857 C 295.504 219.857,295.790 220.013,295.790 220.204 M249.399 223.768 C 249.397 224.151,249.256 224.678,249.087 224.940 C 248.861 225.289,248.777 225.049,248.774 224.048 C 248.771 223.215,248.893 222.756,249.087 222.875 C 249.261 222.983,249.402 223.385,249.399 223.768 M154.726 230.222 C 154.726 235.445,154.670 236.092,154.249 235.743 C 153.402 235.040,153.715 224.305,154.582 224.305 C 154.661 224.305,154.726 226.967,154.726 230.222 M245.274 229.508 C 245.274 229.574,245.060 229.806,244.797 230.024 C 244.407 230.348,244.321 230.326,244.321 229.904 C 244.321 229.620,244.535 229.388,244.797 229.388 C 245.060 229.388,245.274 229.442,245.274 229.508 M243.741 231.049 C 243.566 231.223,243.252 231.261,243.044 231.132 C 242.756 230.954,242.764 230.836,243.080 230.641 C 243.622 230.306,244.155 230.635,243.741 231.049 M240.765 232.907 C 240.703 233.095,240.515 233.249,240.349 233.249 C 240.183 233.249,239.996 233.095,239.934 232.907 C 239.871 232.719,240.058 232.566,240.349 232.566 C 240.641 232.566,240.828 232.719,240.765 232.907 M295.790 235.743 C 295.790 235.917,295.669 236.060,295.521 236.060 C 295.373 236.060,295.097 236.382,294.907 236.775 C 294.582 237.449,294.561 237.431,294.541 236.458 C 294.524 235.630,294.645 235.425,295.155 235.425 C 295.504 235.425,295.790 235.568,295.790 235.743 M154.557 251.268 C 153.744 252.081,153.430 243.665,154.170 240.887 C 154.533 239.523,154.574 239.892,154.654 245.240 C 154.702 248.454,154.658 251.167,154.557 251.268 M295.281 251.708 C 294.550 253.146,294.519 253.151,294.519 251.840 C 294.519 250.882,294.634 250.675,295.163 250.675 C 295.785 250.675,295.789 250.710,295.281 251.708 M212.550 253.047 C 212.550 253.128,212.264 253.348,211.914 253.535 C 211.407 253.806,211.279 253.776,211.279 253.387 C 211.279 253.111,211.555 252.899,211.914 252.899 C 212.264 252.899,212.550 252.966,212.550 253.047 M210.691 254.329 C 210.691 254.495,210.537 254.682,210.349 254.745 C 210.162 254.807,210.008 254.620,210.008 254.329 C 210.008 254.038,210.162 253.851,210.349 253.913 C 210.537 253.976,210.691 254.163,210.691 254.329 M154.726 260.868 C 154.726 265.323,154.637 266.584,154.329 266.482 C 153.508 266.209,153.763 255.123,154.590 255.123 C 154.665 255.123,154.726 257.708,154.726 260.868 M209.531 255.441 C 209.423 255.616,209.129 255.759,208.877 255.759 C 208.625 255.759,208.419 255.616,208.419 255.441 C 208.419 255.266,208.714 255.123,209.074 255.123 C 209.433 255.123,209.639 255.266,209.531 255.441 M207.784 256.553 C 207.566 256.815,207.263 257.029,207.110 257.029 C 206.956 257.029,206.831 256.815,206.831 256.553 C 206.831 256.279,207.118 256.076,207.505 256.076 C 208.069 256.076,208.114 256.155,207.784 256.553 M204.925 258.618 C 204.303 259.020,203.654 259.020,203.654 258.618 C 203.654 258.443,204.047 258.302,204.527 258.305 C 205.208 258.309,205.296 258.378,204.925 258.618 M203.275 259.595 C 203.212 259.783,203.025 259.936,202.859 259.936 C 202.693 259.936,202.506 259.783,202.444 259.595 C 202.381 259.407,202.568 259.253,202.859 259.253 C 203.151 259.253,203.338 259.407,203.275 259.595 M202.065 260.842 C 202.065 261.017,201.851 261.160,201.589 261.160 C 201.326 261.160,201.112 261.017,201.112 260.842 C 201.112 260.667,201.326 260.524,201.589 260.524 C 201.851 260.524,202.065 260.667,202.065 260.842 M200.477 261.761 C 200.477 262.263,199.582 262.406,199.401 261.934 C 199.285 261.632,199.438 261.477,199.851 261.477 C 200.195 261.477,200.477 261.605,200.477 261.761 M197.776 264.019 C 197.668 264.194,197.302 264.337,196.963 264.337 C 196.624 264.337,196.346 264.194,196.346 264.019 C 196.346 263.844,196.712 263.701,197.159 263.701 C 197.620 263.701,197.887 263.839,197.776 264.019 M196.029 264.938 C 196.029 265.094,195.814 265.304,195.552 265.405 C 195.262 265.516,195.075 265.405,195.075 265.121 C 195.075 264.864,195.290 264.654,195.552 264.654 C 195.814 264.654,196.029 264.782,196.029 264.938 M194.473 266.337 C 194.065 266.745,193.652 266.430,193.954 265.941 C 194.071 265.752,194.312 265.687,194.490 265.797 C 194.707 265.931,194.701 266.109,194.473 266.337 M295.258 267.434 C 294.958 267.915,294.669 268.368,294.616 268.441 C 294.563 268.513,294.519 268.120,294.519 267.567 C 294.519 266.769,294.652 266.561,295.162 266.561 C 295.784 266.561,295.787 266.589,295.258 267.434 M193.169 267.026 C 193.169 267.107,192.883 267.327,192.534 267.514 C 192.027 267.785,191.898 267.756,191.898 267.366 C 191.898 267.090,192.174 266.878,192.534 266.878 C 192.883 266.878,193.169 266.945,193.169 267.026 M190.151 269.420 C 190.043 269.595,189.677 269.738,189.338 269.738 C 188.999 269.738,188.721 269.595,188.721 269.420 C 188.721 269.245,189.087 269.102,189.534 269.102 C 189.995 269.102,190.262 269.240,190.151 269.420 M188.562 270.373 C 188.454 270.548,188.160 270.691,187.908 270.691 C 187.656 270.691,187.450 270.548,187.450 270.373 C 187.450 270.199,187.745 270.056,188.105 270.056 C 188.464 270.056,188.670 270.199,188.562 270.373 M154.558 281.132 C 153.750 281.940,153.441 274.441,154.170 271.705 C 154.537 270.326,154.574 270.617,154.654 275.581 C 154.702 278.533,154.659 281.031,154.558 281.132 M185.290 272.661 C 184.993 272.957,184.824 272.957,184.527 272.661 C 184.231 272.364,184.316 272.280,184.909 272.280 C 185.502 272.280,185.586 272.364,185.290 272.661 M295.524 282.225 C 295.335 282.453,295.041 282.989,294.870 283.417 C 294.583 284.135,294.558 284.103,294.540 283.002 C 294.523 281.994,294.623 281.811,295.194 281.811 C 295.712 281.811,295.789 281.907,295.524 282.225 M159.671 286.648 C 159.068 286.985,158.089 286.730,158.352 286.304 C 158.446 286.151,158.902 286.099,159.365 286.187 C 160.083 286.325,160.128 286.392,159.671 286.648 M74.027 293.585 C 74.027 293.924,73.899 294.202,73.743 294.202 C 73.370 294.202,73.022 293.273,73.254 292.897 C 73.531 292.449,74.027 292.890,74.027 293.585 M74.980 295.491 C 74.980 295.831,74.837 296.108,74.662 296.108 C 74.488 296.108,74.345 295.742,74.345 295.295 C 74.345 294.834,74.482 294.567,74.662 294.678 C 74.837 294.786,74.980 295.152,74.980 295.491 M80.858 300.874 C 80.970 301.055,80.696 301.191,80.222 301.191 C 79.749 301.191,79.475 301.055,79.587 300.874 C 79.695 300.699,79.981 300.556,80.222 300.556 C 80.464 300.556,80.750 300.699,80.858 300.874 M82.685 301.986 C 82.567 302.455,81.569 302.372,81.405 301.880 C 81.308 301.589,81.500 301.489,82.014 301.562 C 82.426 301.620,82.728 301.811,82.685 301.986 M85.925 303.120 C 86.112 303.303,85.719 303.415,84.893 303.415 C 83.630 303.415,83.273 303.171,83.787 302.657 C 84.057 302.387,85.493 302.698,85.925 303.120 " stroke="none" fill="#2392ef" fill-rule="evenodd"></path><path id="path4" d="M83.876 149.643 C 83.876 150.047,85.156 150.047,85.782 149.643 C 86.137 149.413,85.954 149.333,85.068 149.330 C 84.412 149.327,83.876 149.468,83.876 149.643 M81.652 150.776 C 81.652 151.145,81.838 151.218,82.367 151.058 C 83.596 150.687,83.754 150.278,82.669 150.278 C 81.957 150.278,81.652 150.428,81.652 150.776 M79.746 151.708 C 79.746 151.970,79.943 152.184,80.183 152.184 C 80.424 152.184,80.799 151.970,81.017 151.708 C 81.351 151.305,81.284 151.231,80.579 151.231 C 80.050 151.231,79.746 151.405,79.746 151.708 M76.251 154.911 C 76.251 155.472,76.935 155.375,77.131 154.786 C 77.200 154.578,77.031 154.408,76.754 154.408 C 76.477 154.408,76.251 154.635,76.251 154.911 M75.298 155.838 C 75.298 156.100,75.441 156.315,75.616 156.315 C 75.790 156.315,75.933 156.100,75.933 155.838 C 75.933 155.576,75.790 155.361,75.616 155.361 C 75.441 155.361,75.298 155.576,75.298 155.838 M74.345 157.445 C 74.345 157.906,74.482 158.173,74.662 158.062 C 74.837 157.954,74.980 157.588,74.980 157.249 C 74.980 156.910,74.837 156.632,74.662 156.632 C 74.488 156.632,74.345 156.998,74.345 157.445 M73.233 158.856 C 72.974 159.275,73.354 159.870,73.731 159.637 C 74.117 159.398,74.115 158.539,73.728 158.539 C 73.564 158.539,73.341 158.681,73.233 158.856 M72.132 161.954 L 72.143 163.145 72.597 162.351 C 73.189 161.316,73.189 160.763,72.597 160.763 C 72.256 160.763,72.124 161.102,72.132 161.954 M158.856 165.932 C 158.082 166.286,158.093 166.298,159.285 166.409 C 160.645 166.536,161.149 166.284,160.436 165.833 C 159.870 165.476,159.851 165.477,158.856 165.932 M168.260 167.986 C 167.877 168.368,168.086 168.705,168.705 168.705 C 169.055 168.705,169.341 168.578,169.341 168.422 C 169.341 168.064,168.514 167.731,168.260 167.986 M169.658 169.341 C 169.658 169.515,170.024 169.658,170.471 169.658 C 170.933 169.658,171.200 169.521,171.088 169.341 C 170.980 169.166,170.614 169.023,170.275 169.023 C 169.936 169.023,169.658 169.166,169.658 169.341 M154.102 171.862 C 153.635 172.734,153.695 173.646,154.249 174.106 C 154.662 174.449,154.726 174.285,154.726 172.874 C 154.726 171.109,154.608 170.916,154.102 171.862 M178.744 174.340 C 178.362 174.723,178.571 175.060,179.190 175.060 C 179.539 175.060,179.825 174.932,179.825 174.776 C 179.825 174.419,178.999 174.086,178.744 174.340 M154.122 179.237 C 153.562 180.842,153.663 188.870,154.249 189.357 C 154.670 189.706,154.726 189.076,154.726 183.994 C 154.726 177.949,154.685 177.623,154.122 179.237 M187.344 179.719 C 186.912 180.151,187.156 180.461,187.927 180.461 C 188.421 180.461,188.721 180.641,188.721 180.937 C 188.721 181.237,189.023 181.414,189.534 181.414 C 189.995 181.414,190.262 181.276,190.151 181.096 C 190.043 180.921,189.771 180.778,189.546 180.778 C 189.321 180.778,188.879 180.492,188.562 180.143 C 187.952 179.469,187.687 179.377,187.344 179.719 M195.890 185.193 C 195.794 185.350,195.924 185.558,196.179 185.656 C 196.676 185.846,197.100 185.450,196.761 185.112 C 196.474 184.825,196.096 184.860,195.890 185.193 M197.299 186.304 C 197.299 186.637,197.576 186.815,198.094 186.815 C 198.531 186.815,198.888 186.672,198.888 186.497 C 198.888 186.322,198.757 186.180,198.596 186.180 C 198.436 186.180,198.078 186.093,197.802 185.987 C 197.472 185.860,197.299 185.969,197.299 186.304 M199.206 187.450 C 199.206 187.625,199.500 187.768,199.860 187.768 C 200.220 187.768,200.426 187.625,200.318 187.450 C 200.210 187.276,199.915 187.133,199.664 187.133 C 199.412 187.133,199.206 187.276,199.206 187.450 M205.878 191.717 C 205.878 192.042,206.165 192.216,206.698 192.216 C 207.694 192.216,207.585 191.470,206.568 191.320 C 206.109 191.253,205.878 191.386,205.878 191.717 M154.141 194.715 C 153.583 196.578,153.655 204.012,154.239 204.784 C 154.655 205.334,154.707 204.751,154.716 199.444 C 154.727 193.050,154.702 192.844,154.141 194.715 M209.751 193.828 C 209.814 194.016,210.001 194.170,210.167 194.170 C 210.333 194.170,210.520 194.016,210.582 193.828 C 210.645 193.641,210.458 193.487,210.167 193.487 C 209.876 193.487,209.689 193.641,209.751 193.828 M215.151 197.002 C 215.227 197.231,215.478 197.481,215.707 197.558 C 215.945 197.637,216.064 197.518,215.985 197.280 C 215.908 197.050,215.658 196.800,215.429 196.724 C 215.191 196.644,215.071 196.763,215.151 197.002 M216.518 197.941 C 216.227 198.411,216.503 198.651,217.181 198.519 C 217.677 198.422,217.683 198.371,217.234 197.999 C 216.877 197.703,216.675 197.686,216.518 197.941 M218.427 199.206 C 218.316 199.387,218.589 199.523,219.063 199.523 C 219.536 199.523,219.810 199.387,219.698 199.206 C 219.590 199.031,219.304 198.888,219.063 198.888 C 218.821 198.888,218.535 199.031,218.427 199.206 M225.130 203.252 C 224.748 203.634,224.957 203.971,225.576 203.971 C 225.925 203.971,226.211 203.844,226.211 203.688 C 226.211 203.331,225.385 202.997,225.130 203.252 M227.164 204.437 C 227.164 204.713,227.440 204.925,227.800 204.925 C 228.149 204.925,228.435 204.858,228.435 204.777 C 228.435 204.696,228.149 204.476,227.800 204.289 C 227.293 204.018,227.164 204.048,227.164 204.437 M154.128 210.149 C 153.570 212.364,153.659 219.685,154.249 220.175 C 154.670 220.524,154.726 219.877,154.726 214.654 C 154.726 208.323,154.678 207.964,154.128 210.149 M235.743 209.838 C 235.743 210.114,236.019 210.326,236.378 210.326 C 236.728 210.326,237.014 210.259,237.014 210.178 C 237.014 210.097,236.728 209.877,236.378 209.690 C 235.871 209.419,235.743 209.449,235.743 209.838 M244.321 215.239 C 244.321 215.515,244.597 215.727,244.956 215.727 C 245.306 215.727,245.592 215.660,245.592 215.579 C 245.592 215.498,245.306 215.278,244.956 215.091 C 244.449 214.820,244.321 214.850,244.321 215.239 M247.498 218.091 C 247.498 219.064,247.679 219.143,247.908 218.269 C 247.999 217.919,247.944 217.554,247.786 217.456 C 247.628 217.358,247.498 217.644,247.498 218.091 M248.774 224.048 C 248.777 225.049,248.861 225.289,249.087 224.940 C 249.490 224.317,249.490 223.124,249.087 222.875 C 248.893 222.756,248.771 223.215,248.774 224.048 M154.107 225.496 C 153.564 227.451,153.673 235.264,154.249 235.743 C 154.670 236.092,154.726 235.445,154.726 230.222 C 154.726 224.056,154.656 223.521,154.107 225.496 M244.321 229.904 C 244.321 230.326,244.407 230.348,244.797 230.024 C 245.060 229.806,245.274 229.574,245.274 229.508 C 245.274 229.442,245.060 229.388,244.797 229.388 C 244.535 229.388,244.321 229.620,244.321 229.904 M243.080 230.641 C 242.764 230.836,242.756 230.954,243.044 231.132 C 243.252 231.261,243.566 231.223,243.741 231.049 C 244.155 230.635,243.622 230.306,243.080 230.641 M239.934 232.907 C 239.996 233.095,240.183 233.249,240.349 233.249 C 240.515 233.249,240.703 233.095,240.765 232.907 C 240.828 232.719,240.641 232.566,240.349 232.566 C 240.058 232.566,239.871 232.719,239.934 232.907 M154.170 240.887 C 153.430 243.665,153.744 252.081,154.557 251.268 C 154.658 251.167,154.702 248.454,154.654 245.240 C 154.574 239.892,154.533 239.523,154.170 240.887 M211.279 253.387 C 211.279 253.776,211.407 253.806,211.914 253.535 C 212.264 253.348,212.550 253.128,212.550 253.047 C 212.550 252.966,212.264 252.899,211.914 252.899 C 211.555 252.899,211.279 253.111,211.279 253.387 M210.008 254.329 C 210.008 254.620,210.162 254.807,210.349 254.745 C 210.537 254.682,210.691 254.495,210.691 254.329 C 210.691 254.163,210.537 253.976,210.349 253.913 C 210.162 253.851,210.008 254.038,210.008 254.329 M154.092 256.791 C 153.609 259.017,153.787 266.302,154.329 266.482 C 154.637 266.584,154.726 265.323,154.726 260.868 C 154.726 254.693,154.651 254.213,154.092 256.791 M208.419 255.441 C 208.419 255.616,208.625 255.759,208.877 255.759 C 209.129 255.759,209.423 255.616,209.531 255.441 C 209.639 255.266,209.433 255.123,209.074 255.123 C 208.714 255.123,208.419 255.266,208.419 255.441 M206.831 256.553 C 206.831 256.815,206.956 257.029,207.110 257.029 C 207.263 257.029,207.566 256.815,207.784 256.553 C 208.114 256.155,208.069 256.076,207.505 256.076 C 207.118 256.076,206.831 256.279,206.831 256.553 M203.654 258.618 C 203.654 259.020,204.303 259.020,204.925 258.618 C 205.296 258.378,205.208 258.309,204.527 258.305 C 204.047 258.302,203.654 258.443,203.654 258.618 M202.444 259.595 C 202.506 259.783,202.693 259.936,202.859 259.936 C 203.025 259.936,203.212 259.783,203.275 259.595 C 203.338 259.407,203.151 259.253,202.859 259.253 C 202.568 259.253,202.381 259.407,202.444 259.595 M201.112 260.842 C 201.112 261.017,201.326 261.160,201.589 261.160 C 201.851 261.160,202.065 261.017,202.065 260.842 C 202.065 260.667,201.851 260.524,201.589 260.524 C 201.326 260.524,201.112 260.667,201.112 260.842 M199.401 261.934 C 199.497 262.185,199.779 262.313,200.026 262.218 C 200.689 261.963,200.574 261.477,199.851 261.477 C 199.438 261.477,199.285 261.632,199.401 261.934 M196.346 264.019 C 196.346 264.194,196.624 264.337,196.963 264.337 C 197.302 264.337,197.668 264.194,197.776 264.019 C 197.887 263.839,197.620 263.701,197.159 263.701 C 196.712 263.701,196.346 263.844,196.346 264.019 M195.075 265.121 C 195.075 265.405,195.262 265.516,195.552 265.405 C 195.814 265.304,196.029 265.094,196.029 264.938 C 196.029 264.782,195.814 264.654,195.552 264.654 C 195.290 264.654,195.075 264.864,195.075 265.121 M193.954 265.941 C 193.652 266.430,194.065 266.745,194.473 266.337 C 194.701 266.109,194.707 265.931,194.490 265.797 C 194.312 265.687,194.071 265.752,193.954 265.941 M191.898 267.366 C 191.898 267.756,192.027 267.785,192.534 267.514 C 192.883 267.327,193.169 267.107,193.169 267.026 C 193.169 266.945,192.883 266.878,192.534 266.878 C 192.174 266.878,191.898 267.090,191.898 267.366 M188.721 269.420 C 188.721 269.595,188.999 269.738,189.338 269.738 C 189.677 269.738,190.043 269.595,190.151 269.420 C 190.262 269.240,189.995 269.102,189.534 269.102 C 189.087 269.102,188.721 269.245,188.721 269.420 M187.450 270.373 C 187.450 270.548,187.656 270.691,187.908 270.691 C 188.160 270.691,188.454 270.548,188.562 270.373 C 188.670 270.199,188.464 270.056,188.105 270.056 C 187.745 270.056,187.450 270.199,187.450 270.373 M154.170 271.705 C 153.441 274.441,153.750 281.940,154.558 281.132 C 154.659 281.031,154.702 278.533,154.654 275.581 C 154.574 270.617,154.537 270.326,154.170 271.705 M184.527 272.661 C 184.824 272.957,184.993 272.957,185.290 272.661 C 185.586 272.364,185.502 272.280,184.909 272.280 C 184.316 272.280,184.231 272.364,184.527 272.661 M158.352 286.304 C 158.089 286.730,159.068 286.985,159.671 286.648 C 160.128 286.392,160.083 286.325,159.365 286.187 C 158.902 286.099,158.446 286.151,158.352 286.304 M73.254 292.897 C 73.022 293.273,73.370 294.202,73.743 294.202 C 74.119 294.202,74.109 293.019,73.731 292.786 C 73.569 292.685,73.354 292.735,73.254 292.897 M74.345 295.295 C 74.345 295.742,74.488 296.108,74.662 296.108 C 74.837 296.108,74.980 295.831,74.980 295.491 C 74.980 295.152,74.837 294.786,74.662 294.678 C 74.482 294.567,74.345 294.834,74.345 295.295 M79.587 300.874 C 79.475 301.055,79.749 301.191,80.222 301.191 C 80.696 301.191,80.970 301.055,80.858 300.874 C 80.750 300.699,80.464 300.556,80.222 300.556 C 79.981 300.556,79.695 300.699,79.587 300.874 M81.405 301.880 C 81.569 302.372,82.567 302.455,82.685 301.986 C 82.728 301.811,82.426 301.620,82.014 301.562 C 81.500 301.489,81.308 301.589,81.405 301.880 M83.787 302.657 C 83.273 303.171,83.630 303.415,84.893 303.415 C 85.719 303.415,86.112 303.303,85.925 303.120 C 85.493 302.698,84.057 302.387,83.787 302.657 " stroke="none" fill="#249cfa" fill-rule="evenodd"></path></g></svg>